<?xml version="1.0" standalone="no"?>
<!DOCTYPE svg PUBLIC "-//W3C//DTD SVG 1.1//EN" "http://www.w3.org/Graphics/SVG/1.1/DTD/svg11.dtd" >
<svg xmlns="http://www.w3.org/2000/svg">
<metadata>Generated by IcoMoon</metadata>
<defs>
<font id="icomoon" horiz-adv-x="1024">
<font-face units-per-em="1024" ascent="960" descent="-64" />
<missing-glyph horiz-adv-x="1024" />
<glyph unicode="&#x20;" horiz-adv-x="512" d="" />
<glyph unicode="&#xe900;" glyph-name="alarm" d="M512 832c-247.424 0-448-200.576-448-448s200.576-448 448-448 448 200.576 448 448-200.576 448-448 448zM512 24c-198.816 0-360 161.184-360 360s161.184 360 360 360c198.816 0 360-161.184 360-360s-161.184-360-360-360zM934.784 672.832c16.032 28.064 25.216 60.544 25.216 95.168 0 106.048-85.952 192-192 192-61.824 0-116.8-29.216-151.904-74.592 131.872-27.232 245.216-105.184 318.72-212.576v0zM407.936 885.408c-35.104 45.376-90.112 74.592-151.936 74.592-106.048 0-192-85.952-192-192 0-34.624 9.184-67.136 25.216-95.168 73.504 107.392 186.816 185.344 318.72 212.576zM512 384v256h-64v-320h256v64z" />
<glyph unicode="&#xe901;" glyph-name="android" d="M896 576c-35.2 0-64-28.8-64-64v-256c0-35.2 28.8-64 64-64s64 28.8 64 64v256c0 35.2-28.8 64-64 64zM128 576c-35.2 0-64-28.8-64-64v-256c0-35.2 28.8-64 64-64s64 28.8 64 64v256c0 35.2-28.8 64-64 64zM224 224c0-53.024 42.976-96 96-96v0-128c0-35.2 28.8-64 64-64s64 28.8 64 64v128h128v-128c0-35.2 28.8-64 64-64s64 28.8 64 64v128c53.024 0 96 42.976 96 96v352h-576v-352zM798.208 640c-9.728 87.872-59.008 163.808-129.632 209.632l32.032 64.032c7.904 15.808 1.504 35.040-14.304 42.944s-35.040 1.504-42.944-14.304l-32.128-64.288-8.352 3.328c-28.576 9.504-59.136 14.656-90.88 14.656s-62.304-5.152-90.88-14.656l-8.352-3.328-32.128 64.288c-7.904 15.808-27.136 22.208-42.944 14.304s-22.208-27.136-14.304-42.944l32.032-64.032c-70.624-45.856-119.904-121.76-129.632-209.632v-32h574.208v32h-1.792zM416 704c-17.664 0-32 14.336-32 32s14.304 31.968 31.936 32c0.032 0 0.064 0 0.096 0s0.032 0 0.064 0c17.632-0.032 31.936-14.336 31.936-32s-14.336-32-32-32zM608 704c-17.664 0-32 14.336-32 32s14.272 31.968 31.936 32c0 0 0.032 0 0.064 0s0.064 0 0.096 0c17.632-0.032 31.936-14.336 31.936-32s-14.336-32-32-32z" />
<glyph unicode="&#xe902;" glyph-name="apple" d="M791.488 415.904c-1.28 129.696 105.76 191.872 110.528 194.976-60.16 88.032-153.856 100.064-187.232 101.472-79.744 8.064-155.584-46.944-196.064-46.944-40.352 0-102.816 45.76-168.96 44.544-86.912-1.28-167.072-50.528-211.808-128.384-90.304-156.704-23.136-388.832 64.896-515.936 43.008-62.208 94.304-132.064 161.632-129.568 64.832 2.592 89.376 41.952 167.744 41.952s100.416-41.952 169.056-40.672c69.76 1.312 113.984 63.392 156.704 125.792 49.376 72.16 69.728 142.048 70.912 145.632-1.536 0.704-136.064 52.224-137.408 207.136zM662.56 796.48c35.744 43.36 59.872 103.52 53.28 163.52-51.488-2.112-113.888-34.304-150.816-77.536-33.152-38.368-62.144-99.616-54.368-158.432 57.472-4.48 116.128 29.216 151.904 72.448z" />
<glyph unicode="&#xe903;" glyph-name="arrow-down" d="M512-32l480 480h-288v512h-384v-512h-288z" />
<glyph unicode="&#xe904;" glyph-name="arrow-left" d="M32 448l480-480v288h512v384h-512v288z" />
<glyph unicode="&#xe905;" glyph-name="arrow-right" d="M992 448l-480 480v-288h-512v-384h512v-288z" />
<glyph unicode="&#xe906;" glyph-name="arrow-up" d="M512 928l-480-480h288v-512h384v512h288z" />
<glyph unicode="&#xe907;" glyph-name="AUTOPLAYOFF" d="M974.016 936h-172c-15.744 0-28.672-12.896-28.672-28.672v-172c0-15.776 12.864-28.672 28.672-28.672h172c15.744 0 28.672 12.896 28.672 28.672v172c-0.032 15.776-12.928 28.672-28.672 28.672zM957.344 752h-138.72v138.656h138.72v-138.656zM175.008 663.072l41.888-281.408h-74.816l-3.904 50.592h-26.176l-4.416-50.592h-75.648l37.344 281.408h105.728zM136.224 482.144c-3.712 31.872-7.392 71.264-11.136 118.176-7.456-53.888-12.16-93.28-14.048-118.176h25.184zM395.648 663.072v-188.064c0-21.312-0.672-36.288-2.080-44.928s-5.504-17.504-12.352-26.592c-6.816-9.088-15.84-16-27.040-20.672-11.168-4.672-24.352-7.040-39.52-7.040-16.8 0-31.616 2.784-44.48 8.352-12.896 5.568-22.528 12.8-28.864 21.728-6.368 8.928-10.144 18.336-11.328 28.256-1.152 9.952-1.76 30.72-1.76 62.496v166.464h73.184v-211.008c0-12.288 0.672-20.16 2.016-23.552 1.312-3.392 4-5.12 8.064-5.12 4.672 0 7.584 1.888 8.96 5.664 1.312 3.744 1.984 12.672 1.984 26.656v207.36h73.216zM571.328 663.072v-56.32h-43.488v-225.088h-73.12v225.056h-43.328v56.32h159.936zM755.264 498.304c0-28.256-0.672-48.288-1.984-60.032-1.344-11.776-5.504-22.496-12.544-32.256s-16.48-17.216-28.448-22.4c-11.936-5.216-25.856-7.84-41.696-7.84-15.104 0-28.608 2.464-40.608 7.392-12 4.896-21.664 12.288-28.928 22.112-7.328 9.888-11.648 20.576-13.024 32.192-1.408 11.584-2.080 31.84-2.080 60.832v48.128c0 28.288 0.672 48.288 2.016 60.064 1.344 11.744 5.504 22.496 12.512 32.224 7.040 9.728 16.48 17.216 28.448 22.432 11.936 5.216 25.856 7.84 41.728 7.84 15.072 0 28.576-2.464 40.576-7.36 12-4.928 21.664-12.32 28.928-22.176 7.328-9.856 11.648-20.576 13.056-32.16 1.376-11.584 2.048-31.872 2.048-60.832v-48.16zM682.080 590.752c0 13.088-0.704 21.44-2.144 25.12-1.472 3.648-4.48 5.472-8.96 5.472-3.84 0-6.752-1.472-8.768-4.448s-3.072-11.68-3.072-26.144v-131.392c0-16.384 0.672-26.432 2.016-30.24 1.344-3.84 4.48-5.76 9.312-5.76 4.96 0 8.16 2.176 9.568 6.592s2.080 14.912 2.080 31.456v129.344zM74.464 303.392h73.728c19.904 0 35.232-1.6 45.984-4.704 10.72-3.136 18.752-7.616 24.16-13.536 5.376-5.92 9.024-13.088 10.944-21.504 1.92-8.384 2.88-21.376 2.88-39.008v-24.512c0-17.984-1.856-31.072-5.568-39.296-3.68-8.224-10.528-14.528-20.416-18.944-9.92-4.416-22.88-6.624-38.848-6.624h-19.68v-113.312h-73.184v281.44zM147.648 255.296v-71.648c2.080-0.096 3.872-0.16 5.376-0.16 6.72 0 11.392 1.664 14.016 4.928 2.624 3.328 3.936 10.176 3.936 20.64v23.104c0 9.632-1.536 15.904-4.576 18.784-3.008 2.88-9.248 4.352-18.752 4.352zM326.304 303.392v-225.088h44.512v-56.32h-117.664v281.408h73.152zM523.904 303.392l41.888-281.408h-74.816l-3.936 50.592h-26.112l-4.448-50.592h-75.68l37.344 281.408h105.76zM485.152 122.464c-3.744 31.872-7.424 71.296-11.2 118.176-7.424-53.92-12.128-93.28-14.048-118.176h25.248zM712.704 303.392l-53.376-179.552v-101.856h-67.744v101.856l-51.424 179.552h67.2c10.496-54.944 16.448-91.904 17.76-110.912 4.064 30.016 10.88 66.976 20.384 110.912h67.2z" />
<glyph unicode="&#xe908;" glyph-name="AUTOPLAYon" d="M971.328 936h-172c-15.744 0-28.672-12.896-28.672-28.672v-172c0-15.776 12.896-28.672 28.672-28.672h172c15.744 0 28.672 12.896 28.672 28.672v172c0 15.776-12.928 28.672-28.672 28.672zM865.76 742.048l-68.672 68.672 26.144 26.208 42.496-42.496 88.8 88.864 26.176-26.24-114.944-115.008zM180.448 663.040l41.888-281.44h-74.848l-3.904 50.656h-26.176l-4.416-50.656h-75.648l37.344 281.44h105.76zM141.664 482.112c-3.712 31.872-7.392 71.264-11.136 118.176-7.456-53.888-12.16-93.28-14.048-118.176h25.184zM401.056 663.040v-188.064c0-21.312-0.672-36.288-2.080-44.928s-5.504-17.504-12.352-26.624c-6.816-9.056-15.84-16-27.040-20.672-11.168-4.672-24.352-7.008-39.52-7.008-16.8 0-31.616 2.752-44.48 8.32-12.896 5.568-22.528 12.8-28.864 21.76-6.368 8.928-10.144 18.304-11.328 28.256-1.152 9.92-1.76 30.72-1.76 62.464v166.496h73.184v-211.008c0-12.288 0.672-20.192 2.016-23.552 1.312-3.424 4-5.12 8.064-5.12 4.672 0 7.584 1.888 8.96 5.632 1.312 3.776 1.984 12.672 1.984 26.688v207.36h73.216zM576.736 663.040v-56.32h-43.456v-225.12h-73.12v225.12h-43.328v56.32h159.904zM760.672 498.272c0-28.256-0.672-48.288-1.984-60.032-1.344-11.808-5.504-22.496-12.544-32.256s-16.48-17.248-28.448-22.432c-11.936-5.184-25.856-7.808-41.696-7.808-15.104 0-28.608 2.432-40.608 7.36s-21.664 12.32-28.928 22.112c-7.328 9.888-11.648 20.576-13.024 32.224-1.408 11.584-2.080 31.84-2.080 60.832v48.128c0 28.288 0.672 48.288 2.016 60.064 1.344 11.744 5.504 22.496 12.512 32.224 7.040 9.728 16.48 17.216 28.448 22.432 11.936 5.216 25.856 7.84 41.728 7.84 15.072 0 28.576-2.464 40.576-7.36 12-4.928 21.664-12.32 28.928-22.176 7.328-9.856 11.648-20.576 13.056-32.16 1.376-11.584 2.048-31.872 2.048-60.832v-48.16zM687.488 590.72c0 13.088-0.704 21.44-2.144 25.12-1.472 3.648-4.48 5.472-8.96 5.472-3.84 0-6.752-1.472-8.768-4.448s-3.072-11.68-3.072-26.144v-131.392c0-16.384 0.672-26.432 2.016-30.24 1.344-3.872 4.48-5.76 9.312-5.76 4.96 0 8.16 2.176 9.568 6.56 1.408 4.448 2.080 14.944 2.080 31.488v129.344zM79.904 303.328h73.696c19.904 0 35.232-1.568 45.984-4.672 10.72-3.136 18.752-7.616 24.16-13.568 5.376-5.888 9.024-13.056 10.944-21.504 1.92-8.384 2.88-21.376 2.88-39.008v-24.512c0-17.952-1.856-31.072-5.568-39.264-3.68-8.256-10.528-14.56-20.416-18.944-9.92-4.448-22.88-6.624-38.848-6.624h-19.648v-113.312h-73.184v281.408zM153.088 255.232v-71.616c2.080-0.128 3.872-0.192 5.376-0.192 6.72 0 11.392 1.696 14.016 4.928 2.624 3.36 3.936 10.176 3.936 20.64v23.136c0 9.632-1.536 15.872-4.576 18.752-3.008 2.912-9.248 4.352-18.752 4.352zM331.744 303.328v-225.056h44.512v-56.32h-117.664v281.376h73.152zM529.312 303.328l41.888-281.376h-74.816l-3.936 50.56h-26.112l-4.448-50.56h-75.648l37.344 281.376h105.728zM490.56 122.4c-3.744 31.872-7.424 71.328-11.2 118.176-7.424-53.888-12.128-93.248-14.048-118.176h25.248zM718.112 303.328l-53.376-179.552v-101.824h-67.744v101.824l-51.424 179.552h67.2c10.496-54.944 16.448-91.872 17.76-110.88 4.064 30.016 10.88 66.944 20.384 110.88h67.2z" />
<glyph unicode="&#xe909;" glyph-name="AUTOPLAYOFF2" d="M974.016 936h-172c-15.744 0-28.672-12.896-28.672-28.672v-172c0-15.776 12.864-28.672 28.672-28.672h172c15.744 0 28.672 12.896 28.672 28.672v172c-0.032 15.776-12.928 28.672-28.672 28.672zM957.344 752h-138.72v138.656h138.72v-138.656zM175.008 663.072l41.888-281.408h-74.816l-3.904 50.592h-26.176l-4.416-50.592h-75.648l37.344 281.408h105.728zM136.224 482.144c-3.712 31.872-7.392 71.264-11.136 118.176-7.456-53.888-12.16-93.28-14.048-118.176h25.184zM395.648 663.072v-188.064c0-21.312-0.672-36.288-2.080-44.928s-5.504-17.504-12.352-26.592c-6.816-9.088-15.84-16-27.040-20.672-11.168-4.672-24.352-7.040-39.52-7.040-16.8 0-31.616 2.784-44.48 8.352s-22.528 12.8-28.864 21.728c-6.368 8.928-10.144 18.336-11.328 28.256-1.152 9.952-1.76 30.72-1.76 62.496v166.464h73.184v-211.008c0-12.288 0.672-20.16 2.016-23.552s4-5.12 8.064-5.12c4.672 0 7.584 1.888 8.96 5.664 1.312 3.744 1.984 12.672 1.984 26.656v207.36h73.216zM571.328 663.072v-56.32h-43.488v-225.088h-73.12v225.056h-43.328v56.32h159.936zM755.264 498.304c0-28.256-0.672-48.288-1.984-60.032-1.344-11.776-5.504-22.496-12.544-32.256s-16.48-17.216-28.448-22.4c-11.936-5.216-25.856-7.84-41.696-7.84-15.104 0-28.608 2.464-40.608 7.392-12 4.896-21.664 12.288-28.928 22.112-7.328 9.888-11.648 20.576-13.024 32.192-1.408 11.584-2.080 31.84-2.080 60.832v48.128c0 28.288 0.672 48.288 2.016 60.064s5.504 22.496 12.512 32.224c7.040 9.728 16.48 17.216 28.448 22.432s25.856 7.84 41.728 7.84c15.072 0 28.576-2.464 40.576-7.36s21.664-12.32 28.928-22.176c7.328-9.856 11.648-20.576 13.056-32.16 1.376-11.584 2.048-31.872 2.048-60.832v-48.16zM682.080 590.752c0 13.088-0.704 21.44-2.144 25.12s-4.48 5.472-8.96 5.472c-3.84 0-6.752-1.472-8.768-4.448s-3.072-11.68-3.072-26.144v-131.392c0-16.384 0.672-26.432 2.016-30.24 1.344-3.84 4.48-5.76 9.312-5.76 4.96 0 8.16 2.176 9.568 6.592s2.080 14.912 2.080 31.456v129.344zM74.464 303.392h73.728c19.904 0 35.232-1.6 45.984-4.704 10.72-3.136 18.752-7.616 24.16-13.536s9.024-13.088 10.944-21.504c1.92-8.384 2.88-21.376 2.88-39.008v-24.512c0-17.984-1.856-31.072-5.568-39.296-3.68-8.224-10.528-14.528-20.416-18.944s-22.88-6.624-38.848-6.624h-19.68v-113.312h-73.184v281.44zM147.648 255.296v-71.648c2.080-0.096 3.872-0.16 5.376-0.16 6.72 0 11.392 1.664 14.016 4.928 2.624 3.328 3.936 10.176 3.936 20.64v23.104c0 9.632-1.536 15.904-4.576 18.784s-9.248 4.352-18.752 4.352zM326.304 303.392v-225.088h44.512v-56.32h-117.664v281.408h73.152zM523.904 303.392l41.888-281.408h-74.816l-3.936 50.592h-26.112l-4.448-50.592h-75.68l37.344 281.408h105.76zM485.152 122.464c-3.744 31.872-7.424 71.296-11.2 118.176-7.424-53.92-12.128-93.28-14.048-118.176h25.248zM712.704 303.392l-53.376-179.552v-101.856h-67.744v101.856l-51.424 179.552h67.2c10.496-54.944 16.448-91.904 17.76-110.912 4.064 30.016 10.88 66.976 20.384 110.912h67.2z" />
<glyph unicode="&#xe90a;" glyph-name="AUTOPLAYon2" d="M971.328 936h-172c-15.744 0-28.672-12.896-28.672-28.672v-172c0-15.776 12.896-28.672 28.672-28.672h172c15.744 0 28.672 12.896 28.672 28.672v172c0 15.776-12.928 28.672-28.672 28.672zM865.76 742.048l-68.672 68.672 26.144 26.208 42.496-42.496 88.8 88.864 26.176-26.24-114.944-115.008zM180.448 663.040l41.888-281.44h-74.848l-3.904 50.656h-26.176l-4.416-50.656h-75.648l37.344 281.44h105.76zM141.664 482.112c-3.712 31.872-7.392 71.264-11.136 118.176-7.456-53.888-12.16-93.28-14.048-118.176h25.184zM401.056 663.040v-188.064c0-21.312-0.672-36.288-2.080-44.928s-5.504-17.504-12.352-26.624c-6.816-9.056-15.84-16-27.040-20.672-11.168-4.672-24.352-7.008-39.52-7.008-16.8 0-31.616 2.752-44.48 8.32s-22.528 12.8-28.864 21.76c-6.368 8.928-10.144 18.304-11.328 28.256-1.152 9.92-1.76 30.72-1.76 62.464v166.496h73.184v-211.008c0-12.288 0.672-20.192 2.016-23.552 1.312-3.424 4-5.12 8.064-5.12 4.672 0 7.584 1.888 8.96 5.632 1.312 3.776 1.984 12.672 1.984 26.688v207.36h73.216zM576.736 663.040v-56.32h-43.456v-225.12h-73.12v225.12h-43.328v56.32h159.904zM760.672 498.272c0-28.256-0.672-48.288-1.984-60.032-1.344-11.808-5.504-22.496-12.544-32.256s-16.48-17.248-28.448-22.432c-11.936-5.184-25.856-7.808-41.696-7.808-15.104 0-28.608 2.432-40.608 7.36s-21.664 12.32-28.928 22.112c-7.328 9.888-11.648 20.576-13.024 32.224-1.408 11.584-2.080 31.84-2.080 60.832v48.128c0 28.288 0.672 48.288 2.016 60.064s5.504 22.496 12.512 32.224c7.040 9.728 16.48 17.216 28.448 22.432s25.856 7.84 41.728 7.84c15.072 0 28.576-2.464 40.576-7.36s21.664-12.32 28.928-22.176c7.328-9.856 11.648-20.576 13.056-32.16 1.376-11.584 2.048-31.872 2.048-60.832v-48.16zM687.488 590.72c0 13.088-0.704 21.44-2.144 25.12s-4.48 5.472-8.96 5.472c-3.84 0-6.752-1.472-8.768-4.448s-3.072-11.68-3.072-26.144v-131.392c0-16.384 0.672-26.432 2.016-30.24 1.344-3.872 4.48-5.76 9.312-5.76 4.96 0 8.16 2.176 9.568 6.56 1.408 4.448 2.080 14.944 2.080 31.488v129.344zM79.904 303.328h73.696c19.904 0 35.232-1.568 45.984-4.672 10.72-3.136 18.752-7.616 24.16-13.568 5.376-5.888 9.024-13.056 10.944-21.504 1.92-8.384 2.88-21.376 2.88-39.008v-24.512c0-17.952-1.856-31.072-5.568-39.264-3.68-8.256-10.528-14.56-20.416-18.944-9.92-4.448-22.88-6.624-38.848-6.624h-19.648v-113.312h-73.184v281.408zM153.088 255.232v-71.616c2.080-0.128 3.872-0.192 5.376-0.192 6.72 0 11.392 1.696 14.016 4.928 2.624 3.36 3.936 10.176 3.936 20.64v23.136c0 9.632-1.536 15.872-4.576 18.752-3.008 2.912-9.248 4.352-18.752 4.352zM331.744 303.328v-225.056h44.512v-56.32h-117.664v281.376h73.152zM529.312 303.328l41.888-281.376h-74.816l-3.936 50.56h-26.112l-4.448-50.56h-75.648l37.344 281.376h105.728zM490.56 122.4c-3.744 31.872-7.424 71.328-11.2 118.176-7.424-53.888-12.128-93.248-14.048-118.176h25.248zM718.112 303.328l-53.376-179.552v-101.824h-67.744v101.824l-51.424 179.552h67.2c10.496-54.944 16.448-91.872 17.76-110.88 4.064 30.016 10.88 66.944 20.384 110.88h67.2z" />
<glyph unicode="&#xe90b;" glyph-name="back2" d="M669.248 642.752l-90.496 90.528-285.248-285.248 285.248-285.248 90.496 90.496-194.752 194.752 194.752 194.72z" />
<glyph unicode="&#xe90c;" glyph-name="bin" d="M128 640v-640c0-35.2 28.8-64 64-64h576c35.2 0 64 28.8 64 64v640h-704zM848 832h-208v80c0 26.4-21.6 48-48 48h-224c-26.4 0-48-21.6-48-48v-80h-208c-26.4 0-48-21.6-48-48v-80h832v80c0 26.4-21.6 48-48 48z" />
<glyph unicode="&#xe90d;" glyph-name="blog" d="M384 960v-96c73.472 0 144.704-14.368 211.712-42.72 64.768-27.392 122.976-66.624 172.928-116.608s89.216-108.192 116.64-172.928c28.352-67.008 42.688-138.24 42.688-211.712h96c0 353.472-286.528 640-640 640zM384 768v-96c94.016 0 182.4-36.608 248.896-103.104s103.104-154.88 103.104-248.896h96c0 247.424-200.576 448-448 448zM480 576l-64-64-224-64-192-416 25.376-25.376 232.8 232.8c-1.408 5.28-2.176 10.848-2.176 16.576 0 35.36 28.672 64 64 64s64-28.64 64-64-28.672-64-64-64c-5.728 0-11.264 0.768-16.576 2.176l-232.8-232.8 25.376-25.376 416 192 64 224 64 64-160 160z" />
<glyph unicode="&#xe90e;" glyph-name="box-add" d="M832 896h-640l-192-192v-672c0-17.664 14.336-32 32-32h960c17.664 0 32 14.336 32 32v672l-192 192zM512 128l-320 256h192v192h256v-192h192l-320-256zM154.496 768l64 64h586.976l64-64h-714.976z" />
<glyph unicode="&#xe90f;" glyph-name="bubble" d="M512 896c282.784 0 512-186.24 512-416s-229.216-416-512-416c-27.168 0-53.824 1.728-79.84 5.056-109.984-109.984-241.248-129.696-368.16-132.608v26.912c68.544 33.568 128 94.752 128 164.64 0 9.76-0.768 19.328-2.176 28.704-115.808 76.256-189.824 192.768-189.824 323.296 0 229.76 229.216 416 512 416z" />
<glyph unicode="&#xe910;" glyph-name="bubble2" d="M512 768c-54.944 0-108-8.672-157.696-25.728-46.72-16.064-88.32-38.752-123.616-67.456-66.208-53.792-102.688-122.976-102.688-194.816 0-40.288 11.2-79.392 33.248-116.16 22.752-37.92 56.992-72.576 98.976-100.256 30.368-20 50.784-51.936 56.16-87.904 1.792-12 2.912-24.096 3.36-36.128 7.456 6.208 14.752 12.832 21.888 19.968 24.16 24.16 56.768 37.504 90.496 37.504 5.376 0 10.752-0.352 16.16-1.024 20.96-2.656 42.4-4.032 63.68-4.032 54.944 0 108 8.672 157.696 25.728 46.72 16.064 88.32 38.752 123.616 67.456 66.208 53.792 102.688 122.976 102.688 194.816s-36.48 141.024-102.688 194.816c-35.328 28.704-76.928 51.392-123.616 67.456-49.696 17.088-102.752 25.728-157.696 25.728zM512 896v0c282.784 0 512-186.24 512-416s-229.216-416-512-416c-27.168 0-53.824 1.728-79.84 5.056-109.984-109.984-241.248-129.696-368.16-132.608v26.912c68.544 33.568 128 94.752 128 164.64 0 9.76-0.768 19.328-2.176 28.704-115.808 76.256-189.824 192.768-189.824 323.296 0 229.76 229.216 416 512 416z" />
<glyph unicode="&#xe911;" glyph-name="bubble3" d="M512 896c282.784 0 512-186.272 512-416s-229.216-416-512-416c-27.136 0-53.792 1.728-79.84 5.024-109.984-109.984-241.248-129.696-368.16-132.576v26.912c68.544 33.568 128 94.72 128 164.64 0 9.76-0.768 19.328-2.144 28.704-115.808 76.288-189.856 192.736-189.856 323.296 0 229.728 229.216 416 512 416z" />
<glyph unicode="&#xe912;" glyph-name="bubble32" d="M512 736c8.832 0 16-7.168 16-16s-7.2-16-16-16c-170.464 0-320-89.728-320-192 0-8.832-7.168-16-16-16s-16 7.168-16 16c0 121.408 161.184 224 352 224zM512 896c-282.784 0-512-171.936-512-384 0-132.064 88.928-248.512 224.256-317.632 0-0.864-0.256-1.44-0.256-2.368 0-57.376-42.848-119.136-61.696-151.552 0.032 0 0.064 0 0.064 0-1.504-3.52-2.368-7.392-2.368-11.456 0-16 12.96-28.992 28.992-28.992 3.008 0 8.288 0.8 8.16 0.448 100 16.384 194.208 108.256 216.096 134.88 31.968-4.704 64.928-7.328 98.752-7.328 282.72 0 512 171.936 512 384s-229.248 384-512 384zM512 192c-29.344 0-59.456 2.24-89.472 6.624-3.104 0.512-6.208 0.672-9.28 0.672-19.008 0-37.216-8.448-49.472-23.36-13.696-16.672-52.672-53.888-98.72-81.248 12.48 28.64 22.24 60.736 22.912 93.824 0.192 2.048 0.288 4.128 0.288 5.888 0 24.064-13.472 46.048-34.88 56.992-118.592 60.544-189.376 157.984-189.376 260.608 0 176.448 200.96 320 448 320 246.976 0 448-143.552 448-320s-200.992-320-448-320z" />
<glyph unicode="&#xe913;" glyph-name="bubbles" d="M967.104 102.080c0-40.448 23.136-75.456 56.896-92.608v-14.176c-9.44-1.28-19.072-1.984-28.896-1.984-60.448 0-114.976 25.376-153.536 66.016-23.296-6.208-48-9.568-73.6-9.568-141.408 0-256 101.888-256 227.552s114.592 227.552 256 227.552c141.408 0 256-101.888 256-227.552 0-49.216-17.568-94.752-47.424-131.968-6.048-13.184-9.472-27.84-9.472-43.296zM455.104 903.104c247.52 0 448.896-160.544 454.976-360.448-43.712 19.488-92.064 29.792-142.080 29.792-84.928 0-165.184-29.728-225.92-83.712-62.976-55.968-97.664-131.040-97.664-211.392 0-39.712 8.48-78.144 24.672-113.568-4.64-0.128-9.312-0.192-13.984-0.192-24.16 0-47.84 1.536-70.976 4.48-97.76-97.76-214.432-115.296-327.264-117.888v23.936c60.928 29.824 113.792 84.224 113.792 146.336 0 8.672-0.672 17.184-1.92 25.504-102.944 67.776-168.736 171.36-168.736 287.36 0 204.224 203.744 369.792 455.104 369.792z" />
<glyph unicode="&#xe914;" glyph-name="bubbles2" d="M426.656 903.104v0c235.648 0 426.656-154.592 426.656-345.28s-191.040-345.28-426.656-345.28c-22.656 0-44.832 1.44-66.528 4.192-91.648-91.264-197.504-107.648-303.232-110.048v22.336c57.12 27.872 103.104 78.656 103.104 136.64 0 8.096-0.64 16.032-1.792 23.808-96.48 63.296-158.208 160-158.208 268.352 0 190.688 191.040 345.28 426.656 345.28zM885.344 129.152c0-49.728 32.288-93.248 81.792-117.12v-19.136c-91.68 2.048-175.808 16.096-255.232 94.336-18.816-2.368-38.016-3.584-57.664-3.584-84.864 0-163.040 22.912-225.408 61.344 128.608 0.448 249.984 41.632 342.080 116.16 46.4 37.536 83.040 81.632 108.8 130.976 27.328 52.352 41.216 108.064 41.216 165.696 0 9.28-0.384 18.528-1.12 27.712 64.512-53.28 104.224-125.888 104.224-205.952 0-92.864-53.472-175.744-137.088-230.016-1.024-6.656-1.568-13.472-1.568-20.416z" />
<glyph unicode="&#xe915;" glyph-name="bubbles3" d="M967.104 102.080c0-40.448 23.136-75.456 56.896-92.608v-14.176c-9.44-1.28-19.072-1.984-28.896-1.984-60.448 0-114.976 25.376-153.536 66.016-23.296-6.208-48-9.568-73.6-9.568-141.408 0-256 101.888-256 227.552s114.592 227.552 256 227.552c141.408 0 256-101.888 256-227.552 0-49.216-17.568-94.752-47.424-131.968-6.048-13.184-9.472-27.84-9.472-43.296zM205.056 706.496c-58.848-47.808-91.264-109.312-91.264-173.184 0-35.808 9.952-70.56 29.568-103.264 20.224-33.696 50.656-64.512 87.968-89.12 27.008-17.792 45.152-46.176 49.92-78.144 1.6-10.656 2.592-21.408 2.976-32.128 6.624 5.504 13.12 11.392 19.456 17.76 21.472 21.472 50.464 33.344 80.448 33.344 4.768 0 9.568-0.32 14.368-0.896 18.624-2.368 37.632-3.552 56.512-3.584v-113.792c-24.128 0-47.776 1.536-70.88 4.48-97.76-97.76-214.432-115.296-327.264-117.888v23.936c60.928 29.824 113.792 84.224 113.792 146.336 0 8.672-0.672 17.184-1.92 25.504-102.944 67.776-168.736 171.36-168.736 287.36 0 204.224 203.744 369.792 455.104 369.792 247.52 0 448.896-160.544 454.976-360.448-36.512 16.256-76.32 26.144-117.568 28.96-10.24 49.824-40.352 96.736-87.328 134.88-31.392 25.504-68.384 45.696-109.888 59.968-44.16 15.2-91.328 22.88-140.16 22.88s-96-7.712-140.16-22.88c-41.536-14.272-78.496-34.432-109.888-59.968z" />
<glyph unicode="&#xe916;" glyph-name="bubbles4" d="M426.656 789.344c-45.024 0-88.512-7.040-129.216-20.992-38.144-13.056-72.096-31.488-100.896-54.784-53.376-43.168-82.784-98.496-82.784-155.712 0-32 8.96-63.072 26.592-92.352 18.368-30.528 46.144-58.496 80.256-80.832 27.040-17.76 45.28-46.176 50.080-78.176 0.8-5.312 1.44-10.656 1.92-16.032 2.432 2.24 4.8 4.544 7.232 6.944 21.44 21.376 50.368 33.152 80.288 33.152 4.736 0 9.536-0.32 14.304-0.896 17.216-2.176 34.784-3.296 52.224-3.296 45.024 0 88.512 7.040 129.216 20.992 38.144 13.056 72.096 31.488 100.896 54.784 53.376 43.168 82.784 98.496 82.784 155.712s-29.376 112.512-82.784 155.712c-28.8 23.296-62.752 41.728-100.896 54.784-40.704 13.952-84.192 20.992-129.216 20.992zM426.656 903.104v0c235.648 0 426.656-154.592 426.656-345.28s-191.040-345.28-426.656-345.28c-22.656 0-44.832 1.44-66.528 4.192-91.648-91.264-197.504-107.648-303.232-110.048v22.336c57.12 27.872 103.104 78.656 103.104 136.64 0 8.096-0.64 16.032-1.792 23.808-96.48 63.296-158.208 160-158.208 268.352 0 190.688 191.040 345.28 426.656 345.28zM885.344 129.152c0-49.728 32.288-93.248 81.792-117.12v-19.136c-91.68 2.048-175.808 16.096-255.232 94.336-18.816-2.368-38.016-3.584-57.664-3.584-84.864 0-163.040 22.912-225.408 61.344 128.608 0.448 249.984 41.632 342.080 116.16 46.4 37.536 83.040 81.632 108.8 130.976 27.328 52.352 41.216 108.064 41.216 165.696 0 9.28-0.384 18.528-1.12 27.712 64.512-53.28 104.224-125.888 104.224-205.952 0-92.864-53.472-175.744-137.088-230.016-1.024-6.656-1.568-13.472-1.568-20.416z" />
<glyph unicode="&#xe917;" glyph-name="Bulletscreenoff" d="M223.648 604.128h398.752v-75.968h-398.752v75.968zM299.584 490.208h379.776v-75.936h-379.776v75.936zM299.584 262.336h379.776v-75.936h-379.776v75.936zM147.68 376.288h360.768v-75.936h-360.768v75.936zM432.512 148.448h246.848v-75.936h-246.848v75.936zM716.608 69.376c0-32.896-26.656-59.552-59.52-59.552h-518.112c-32.896 0-59.552 26.688-59.552 59.552v518.080c0 32.928 26.656 59.552 59.552 59.552h518.080c32.864 0 59.52-26.656 59.52-59.552v-518.080zM765.344 626.976c0 38.112-30.944 69.024-69.024 69.024h-600.64c-38.112 0-69.024-30.912-69.024-69.024v-600.64c0-38.080 30.912-69.024 69.024-69.024h600.64c38.080 0 69.024 30.944 69.024 69.024v600.64zM974.016 936h-172.032c-15.744 0-28.672-12.896-28.672-28.672v-172c0-15.776 12.896-28.672 28.672-28.672h172.032c15.744 0 28.672 12.896 28.672 28.672v172c-0.032 15.776-12.928 28.672-28.672 28.672zM957.344 752h-138.72v138.656h138.72v-138.656z" />
<glyph unicode="&#xe918;" glyph-name="Bulletscreenon" d="M223.648 604.128h398.752v-75.968h-398.752v75.968zM299.584 490.208h379.776v-75.936h-379.776v75.936zM299.584 262.336h379.776v-75.936h-379.776v75.936zM147.68 376.288h360.768v-75.936h-360.768v75.936zM432.512 148.448h246.848v-75.936h-246.848v75.936zM716.608 69.376c0-32.896-26.656-59.552-59.52-59.552h-518.112c-32.896 0-59.552 26.688-59.552 59.552v518.080c0 32.928 26.656 59.552 59.552 59.552h518.080c32.864 0 59.52-26.656 59.52-59.552v-518.080zM765.344 626.976c0 38.112-30.944 69.024-69.024 69.024h-600.64c-38.112 0-69.024-30.912-69.024-69.024v-600.64c0-38.080 30.912-69.024 69.024-69.024h600.64c38.080 0 69.024 30.944 69.024 69.024v600.64zM971.328 936h-172c-15.744 0-28.672-12.896-28.672-28.672v-172c0-15.776 12.928-28.672 28.672-28.672h172c15.744 0 28.672 12.896 28.672 28.672v172c0 15.776-12.928 28.672-28.672 28.672zM865.76 742.048l-68.672 68.672 26.176 26.208 42.496-42.496 88.8 88.864 26.176-26.24-114.976-115.008z" />
<glyph unicode="&#xe919;" glyph-name="Bulletscreen" d="M269.728 760.768h492v-93.728h-492v93.728zM363.424 620.192h468.576v-93.696h-468.576v93.696zM363.424 339.040h468.576v-93.696h-468.576v93.696zM176 479.616h445.152v-93.696h-445.152v93.696zM527.424 198.464h304.576v-93.696h-304.576v93.696zM933.312 109.92c0-43.232-35.072-78.24-78.24-78.24h-680.832c-43.232 0-78.272 35.072-78.272 78.24v680.8c0 43.232 35.040 78.24 78.272 78.24h680.832c43.2 0 78.24-35.040 78.24-78.24v-680.8zM997.344 842.656c0 50.080-40.672 90.688-90.72 90.688h-789.248c-50.080 0-90.72-40.608-90.72-90.688v-789.28c0-50.080 40.64-90.72 90.72-90.72h789.248c50.048 0 90.72 40.64 90.72 90.72v789.28z" />
<glyph unicode="&#xe91a;" glyph-name="bullhorn" d="M1024 530.752c0 200.928-58.784 363.936-131.488 365.216 0.288 0 0.576 0.032 0.864 0.032h-82.944c0 0-194.816-146.336-475.232-203.744-8.576-45.28-14.016-99.264-14.016-161.504s5.472-116.192 14.016-161.504c280.416-57.408 475.232-203.744 475.232-203.744h82.944c-0.288 0-0.576 0.032-0.864 0.032 72.704 1.28 131.488 164.288 131.488 365.216zM864.832 220.736c-9.376 0-19.52 9.728-24.736 15.552-12.64 14.048-24.8 35.968-35.2 63.328-23.264 61.216-36.064 143.296-36.064 231.136s12.8 169.888 36.064 231.136c10.4 27.36 22.56 49.28 35.2 63.328 5.216 5.824 15.36 15.552 24.736 15.552s19.52-9.728 24.736-15.552c12.64-14.048 24.8-35.968 35.2-63.328 23.264-61.216 36.064-143.328 36.064-231.136s-12.8-169.888-36.064-231.136c-10.4-27.36-22.56-49.28-35.2-63.328-5.216-5.792-15.36-15.552-24.736-15.552zM251.808 530.752c0 51.936 3.808 102.432 11.040 149.088-47.36-6.56-88.928-10.336-140.352-10.336-67.072 0-67.072 0-67.072 0l-55.456-94.688v-88.16l55.456-94.688c0 0 0 0 67.072 0 51.392 0 92.96-3.776 140.352-10.336-7.232 46.656-11.040 97.152-11.040 149.088zM368.16 317.824l-128 24.512 81.856-321.536c4.224-16.64 20.736-25.024 36.672-18.656l118.56 47.456c15.936 6.368 22.336 23.968 14.208 39.072l-123.296 229.152zM864.832 411.264c-3.616 0-7.52 3.744-9.536 5.984-4.864 5.408-9.568 13.856-13.568 24.416-8.96 23.616-13.888 55.232-13.888 89.088s4.928 65.472 13.888 89.088c4 10.56 8.704 18.976 13.568 24.416 2.016 2.24 5.92 5.984 9.536 5.984s7.52-3.744 9.536-5.984c4.864-5.408 9.568-13.856 13.568-24.416 8.96-23.584 13.888-55.232 13.888-89.088s-4.928-65.472-13.888-89.088c-4-10.56-8.704-18.976-13.568-24.416-2.016-2.24-5.92-5.984-9.536-5.984z" />
<glyph unicode="&#xe91b;" glyph-name="checkbox-checked" d="M896 960h-768c-70.4 0-128-57.6-128-128v-768c0-70.4 57.6-128 128-128h768c70.4 0 128 57.6 128 128v768c0 70.4-57.6 128-128 128zM448 165.504l-237.248 237.248 90.528 90.528 146.72-146.72 306.752 306.752 90.496-90.528-397.248-397.248z" />
<glyph unicode="&#xe91c;" glyph-name="checkbox-unchecked" d="M896 960h-768c-70.4 0-128-57.6-128-128v-768c0-70.4 57.6-128 128-128h768c70.4 0 128 57.6 128 128v768c0 70.4-57.6 128-128 128zM896 64h-768v768h768v-768z" />
<glyph unicode="&#xe91d;" glyph-name="checkmark" d="M864 832l-480-480-224 224-160-160 384-384 640 640z" />
<glyph unicode="&#xe91e;" glyph-name="checkmark2" d="M397.44 42.304l-397.888 391.616 197.376 194.272 200.512-197.344 429.632 422.848 197.376-194.272-626.976-617.12zM107.936 433.888l289.504-284.96 518.656 510.496-89.024 87.648-429.6-422.848-200.512 197.312-89.056-87.616z" />
<glyph unicode="&#xe91f;" glyph-name="chevron-with-circle-down" d="M640.256 514.662l-128.256-117.862-128.307 117.862c-10.138 10.035-26.522 10.035-36.762 0-10.086-10.035-10.086-26.368 0-36.352l146.637-143.718c10.189-10.035 26.624-10.035 36.71 0l146.637 143.718c10.189 9.984 10.138 26.317 0 36.352-10.086 10.035-26.47 10.035-36.659 0zM512 939.52c-271.462 0-491.52-220.058-491.52-491.52 0-271.514 220.058-491.52 491.52-491.52s491.52 220.006 491.52 491.52c0 271.462-220.058 491.52-491.52 491.52zM512 20.275c-236.288 0-427.725 191.488-427.725 427.725s191.437 427.725 427.725 427.725c236.186 0 427.725-191.488 427.725-427.725s-191.539-427.725-427.725-427.725z" />
<glyph unicode="&#xe920;" glyph-name="chevron-with-circle-left" d="M578.662 613.069c-10.035 10.086-26.368 10.086-36.352 0l-143.718-146.688c-10.035-10.189-10.035-26.624 0-36.71l143.718-146.637c9.984-10.189 26.317-10.138 36.352 0 10.035 10.086 10.035 26.522 0 36.71l-117.862 128.256 117.862 128.307c10.035 10.138 10.035 26.522 0 36.762zM512 939.52c-271.462 0-491.52-220.058-491.52-491.52 0-271.514 220.058-491.52 491.52-491.52s491.52 220.006 491.52 491.52c0 271.462-220.058 491.52-491.52 491.52zM512 20.275c-236.288 0-427.725 191.488-427.725 427.725s191.437 427.725 427.725 427.725c236.186 0 427.725-191.488 427.725-427.725s-191.539-427.725-427.725-427.725z" />
<glyph unicode="&#xe921;" glyph-name="chevron-with-circle-right" d="M563.2 448l-117.862 128.307c-10.035 10.138-10.035 26.573 0 36.762 10.035 10.086 26.368 10.086 36.352 0l143.718-146.637c10.035-10.189 10.035-26.624 0-36.71l-143.718-146.637c-9.984-10.189-26.317-10.138-36.352 0-10.035 10.086-10.035 26.522 0 36.71l117.862 128.205zM512 939.52c271.462 0 491.52-220.058 491.52-491.52 0-271.514-220.058-491.52-491.52-491.52s-491.52 220.006-491.52 491.52c0 271.462 220.058 491.52 491.52 491.52zM512 20.275c236.186 0 427.725 191.488 427.725 427.725s-191.539 427.725-427.725 427.725c-236.288 0-427.725-191.488-427.725-427.725s191.437-427.725 427.725-427.725z" />
<glyph unicode="&#xe922;" glyph-name="chevron-with-circle-up" d="M530.381 561.408c-10.189 10.035-26.624 10.035-36.71 0l-146.637-143.718c-10.189-9.984-10.138-26.317 0-36.352 10.086-10.035 26.522-10.035 36.71 0l128.256 117.862 128.307-117.862c10.138-10.035 26.522-10.035 36.762 0 10.086 10.035 10.086 26.368 0 36.352l-146.688 143.718zM512 939.52c-271.462 0-491.52-220.058-491.52-491.52 0-271.514 220.058-491.52 491.52-491.52s491.52 220.006 491.52 491.52c0 271.462-220.058 491.52-491.52 491.52zM512 20.275c-236.288 0-427.725 191.488-427.725 427.725s191.437 427.725 427.725 427.725c236.186 0 427.725-191.488 427.725-427.725s-191.539-427.725-427.725-427.725z" />
<glyph unicode="&#xe923;" glyph-name="circle-down" d="M1024 448c0 282.752-229.216 512-512 512s-512-229.216-512-512 229.216-512 512-512 512 229.216 512 512zM96 448c0 229.76 186.24 416 416 416s416-186.24 416-416-186.24-416-416-416-416 186.24-416 416zM317.248 605.248l-90.528-90.528 285.248-285.248 285.248 285.248-90.496 90.528-194.752-194.72z" />
<glyph unicode="&#xe924;" glyph-name="circle-left" d="M512-64c282.784 0 512 229.216 512 512s-229.216 512-512 512-512-229.216-512-512 229.216-512 512-512zM512 864c229.76 0 416-186.24 416-416s-186.24-416-416-416-416 186.24-416 416 186.24 416 416 416zM669.248 642.752l-90.496 90.528-285.248-285.248 285.248-285.248 90.496 90.496-194.752 194.752z" />
<glyph unicode="&#xe925;" glyph-name="circle-right" d="M512 960c-282.752 0-512-229.216-512-512s229.216-512 512-512 512 229.216 512 512-229.216 512-512 512zM512 32c-229.76 0-416 186.24-416 416s186.24 416 416 416 416-186.24 416-416-186.24-416-416-416zM354.752 253.248l90.528-90.496 285.248 285.248-285.248 285.248-90.528-90.528 194.72-194.752z" />
<glyph unicode="&#xe926;" glyph-name="circle-up" d="M0 448c0-282.784 229.216-512 512-512s512 229.216 512 512-229.216 512-512 512-512-229.216-512-512zM928 448c0-229.76-186.24-416-416-416s-416 186.24-416 416 186.24 416 416 416 416-186.24 416-416zM706.752 290.752l90.496 90.496-285.248 285.248-285.248-285.248 90.528-90.496 194.752 194.752z" />
<glyph unicode="&#xe927;" glyph-name="circle-with-cross" d="M512 878.080c-237.517 0-430.080-192.563-430.080-430.080s192.563-430.080 430.080-430.080 430.080 192.563 430.080 430.080c0 237.517-192.563 430.080-430.080 430.080zM757.197 291.277l-88.525-88.525-156.672 156.723-156.723-156.672-88.525 88.525 156.774 156.672-156.723 156.723 88.525 88.474 156.672-156.672 156.723 156.723 88.525-88.525-156.774-156.723 156.723-156.723z" />
<glyph unicode="&#xe928;" glyph-name="circle-with-minus" d="M512 878.080c-237.517 0-430.080-192.563-430.080-430.080s192.563-430.080 430.080-430.080 430.080 192.563 430.080 430.080c0 237.517-192.563 430.080-430.080 430.080zM768 396.8h-512v102.4h512v-102.4z" />
<glyph unicode="&#xe929;" glyph-name="circle-with-plus" d="M512 878.080c-237.517 0-430.080-192.563-430.080-430.080s192.563-430.080 430.080-430.080 430.080 192.563 430.080 430.080c0 237.517-192.563 430.080-430.080 430.080zM768 396.8h-204.8v-204.8h-102.4v204.8h-204.8v102.4h204.8v204.8h102.4v-204.8h204.8v-102.4z" />
<glyph unicode="&#xe92a;" glyph-name="clock" d="M658.752 210.752l-210.752 210.752v282.496h128v-229.504l173.248-173.248zM512 960c-282.784 0-512-229.216-512-512s229.216-512 512-512 512 229.216 512 512-229.216 512-512 512zM512 64c-212.064 0-384 171.936-384 384s171.936 384 384 384c212.064 0 384-171.936 384-384s-171.936-384-384-384z" />
<glyph unicode="&#xe92b;" glyph-name="clock2" d="M512 960c-282.784 0-512-229.216-512-512s229.216-512 512-512 512 229.216 512 512-229.216 512-512 512zM658.752 210.752l-210.752 210.752v282.496h128v-229.504l173.248-173.248-90.528-90.528z" />
<glyph unicode="&#xe92c;" glyph-name="cloud" d="M1024 302.464c0 82.080-56.672 150.912-132.992 169.472-3.232 128.704-108.448 232.064-237.856 232.064-75.808 0-143.264-35.488-186.848-90.72-24.448 31.584-62.688 51.968-105.696 51.968-73.824 0-133.632-59.872-133.632-133.728 0-6.432 0.48-12.768 1.376-18.944-11.232 2.016-22.752 3.136-34.56 3.136-107.008 0-193.728-86.784-193.728-193.856s86.72-193.856 193.728-193.856h656.256c96.128 0.192 174.016 78.208 174.016 174.432z" />
<glyph unicode="&#xe92d;" glyph-name="cloud-check" d="M892.256 445.504c2.432 11.104 3.744 22.656 3.744 34.496 0 88.352-71.648 160-160 160-14.24 0-28-1.856-41.12-5.344-24.8 77.344-97.28 133.344-182.88 133.344-87.36 0-161.056-58.336-184.32-138.176-22.752 6.624-46.784 10.176-71.68 10.176-141.376 0-256-114.624-256-256s114.624-256 256-256h608c88.352 0 160 71.648 160 160 0 78.72-56.864 144.16-131.744 157.504zM416 192l-160 160 64 64 96-96 224 224 64-64-288-288z" />
<glyph unicode="&#xe92e;" glyph-name="cloud-download" d="M891.008 599.936c-3.232 128.704-108.448 232.064-237.856 232.064-75.808 0-143.264-35.488-186.848-90.72-24.448 31.584-62.688 51.968-105.696 51.968-73.824 0-133.632-59.872-133.632-133.728 0-6.432 0.48-12.768 1.376-18.944-11.232 2.016-22.752 3.136-34.56 3.136-107.008 0-193.728-86.784-193.728-193.856s86.72-193.856 193.728-193.856h91.776l226.496-234.496 226.496 234.496h111.488c96.128 0.192 174.016 78.208 174.016 174.432 0 82.080-56.672 150.912-132.992 169.472zM512 128l-192 192h128v192h128v-192h128l-192-192z" />
<glyph unicode="&#xe92f;" glyph-name="cloud-upload" d="M892.256 573.504c2.432 11.104 3.744 22.656 3.744 34.496 0 88.352-71.648 160-160 160-14.208 0-28-1.856-41.12-5.344-24.8 77.344-97.28 133.344-182.88 133.344-87.36 0-161.056-58.336-184.32-138.176-22.752 6.624-46.784 10.176-71.68 10.176-141.376 0-256-114.624-256-256s114.624-256 256-256h128v-192h256v192h224c88.352 0 160 71.648 160 160 0 78.72-56.864 144.16-131.744 157.504zM576 320v-192h-128v192h-160l224 224 224-224h-160z" />
<glyph unicode="&#xe930;" glyph-name="cog" d="M933.792 349.76c-53.728 93.056-21.408 212.288 72.16 266.496l-100.64 174.304c-28.736-16.864-62.176-26.528-97.856-26.528-107.552 0-194.72 87.744-194.72 196h-201.248c0.256-33.408-8.064-67.296-25.952-98.24-53.728-93.056-173.152-124.704-266.848-70.752l-100.608-174.304c28.96-16.48 54.048-40.576 71.872-71.488 53.632-92.896 21.504-211.936-71.712-266.208l100.64-174.304c28.64 16.704 61.92 26.24 97.408 26.24 107.2 0 194.144-87.2 194.688-194.944h201.248c-0.096 33.088 8.288 66.56 25.952 97.216 53.632 92.896 172.768 124.608 266.4 71.008l100.64 174.304c-28.768 16.48-53.696 40.512-71.424 71.232zM512 240.672c-114.496 0-207.328 92.832-207.328 207.328s92.832 207.328 207.328 207.328c114.496 0 207.328-92.832 207.328-207.328s-92.832-207.328-207.328-207.328z" />
<glyph unicode="&#xe931;" glyph-name="DAHAODE" d="M512 948.8c-276.576 0-500.8-224.192-500.8-500.8s224.224-500.8 500.8-500.8c276.608 0 500.8 224.224 500.8 500.8s-224.192 500.8-500.8 500.8zM570.528 710.080c10.848 17.76 39.136 59.552 94.656 61.28 34.144 2.016 57.12-17.6 42.976-53.664-7.424-23.264-40.16-42.304-55.776-49.44-15.616-7.104-17.76-8.288-34.4-12.576-16.672-4.256-42.72-6.944-42.72-6.944s-21.632-0.992-21.632 14.912c0 15.904 7.68 27.904 16.896 46.432zM355.808 771.36c55.488-1.728 83.808-43.52 94.656-61.28 9.248-18.528 16.928-30.56 16.928-46.432 0-15.904-21.664-14.912-21.664-14.912s-26.016 2.656-42.688 6.944c-16.672 4.288-18.784 5.44-34.4 12.576s-48.32 26.176-55.808 49.44c-14.176 36.064 8.832 55.68 42.976 53.664zM713.024 473.024c0 0-1.472-90.208-32.352-175.456-31.68-84.384-51.296-107.296-82.784-150.912-25.792-35.808-55.168-64.672-84.416-74.72 0 0-40.768 10.848-92 75.36-18.272 23.104-38.4 50.176-57.952 89.088-8.672 17.216 130.752 143.616 196.512 189.984 0 0-114.048-10.592-230.464-104.48-6.816 23.872-15.84 63.296-19.84 114.816 8.352 39.392 93.824 82.208 93.824 82.208s-57.28-2.944-89.568-17.44c0 0 1.76 22.048 6.048 36.32 0 0 3.136 10.88 6.016 18.144 0 0 10.24 29.344 30.24 42.368 0 0 41.92 29.056 152.608 30.24 0 0 95.328 3.040 155.808-30.24-0.032 0 55.008-22.784 48.32-125.28z" />
<glyph unicode="&#xe932;" glyph-name="display2" d="M864 800.128l-704-0.128c-17.696 0-32-14.176-32-31.872v-448c0-17.696 14.304-32 32-32h704c17.696 0 32 14.304 32 32v448c0 17.696-14.304 32-32 32zM864 320h-704v448.128h704v-448.128zM928 928h-832c-53.024 0-96-42.944-96-96v-640c0-52.928 42.816-95.808 95.68-95.936h320.32v-38.944l-199.744-25.952c-14.272-3.552-24.256-16.352-24.256-31.040 0-17.696 14.304-32 32-32h576c17.696 0 32 14.304 32 32 0 14.688-9.984 27.488-24.256 31.072l-199.744 25.92v38.944h320.32c52.864 0.128 95.68 43.008 95.68 95.936v640c0 53.056-43.008 96-96 96zM960 192c0-17.632-14.368-32-32-32h-832c-17.664 0-32 14.368-32 32v640c0 17.664 14.336 32 32 32h832c17.632 0 32-14.336 32-32v-640z" />
<glyph unicode="&#xe933;" glyph-name="down" d="M349.248 573.248l-90.528-90.528 285.248-285.248 285.248 285.248-90.496 90.528-194.752-194.72-194.72 194.72z" />
<glyph unicode="&#xe934;" glyph-name="download2" d="M896 448h-160l-224-224-224 224h-160l-128-256v-64h1024v64l-128 256zM0 64h1024v-64h-1024v64zM576 640v256h-128v-256h-224l288-288 288 288h-224z" />
<glyph unicode="&#xe935;" glyph-name="download3" d="M736 512l-256-256-256 256h160v384h192v-384zM480 256h-480v-256h960v256h-480zM896 128h-128v64h128v-64z" />
<glyph unicode="&#xe936;" glyph-name="enlarge" d="M1024 960h-416l160-160-192-192 96-96 192 192 160-160zM1024-64v416l-160-160-192 192-96-96 192-192-160-160zM0-64h416l-160 160 192 192-96 96-192-192-160 160zM0 960v-416l160 160 192-192 96 96-192 192 160 160z" />
<glyph unicode="&#xe937;" glyph-name="enlarge2" d="M1024 960v-416l-160 160-192-192-96 96 192 192-160 160zM448 288l-192-192 160-160h-416v416l160-160 192 192z" />
<glyph unicode="&#xe938;" glyph-name="envelop" d="M928 832h-832c-52.8 0-96-43.2-96-96v-640c0-52.8 43.2-96 96-96h832c52.8 0 96 43.2 96 96v640c0 52.8-43.2 96-96 96zM398.752 409.632l-270.752-210.88v501.632l270.752-290.752zM176.384 704h671.232l-335.616-252-335.616 252zM409.28 398.304l102.72-110.304 102.72 110.304 210.56-270.304h-626.528l210.56 270.304zM625.248 409.632l270.752 290.752v-501.632l-270.752 210.88z" />
<glyph unicode="&#xe939;" glyph-name="flow-branch" d="M839.68 755.2c0 67.891-54.989 122.88-122.88 122.88s-122.88-54.989-122.88-122.88c0-49.203 29.082-91.341 70.861-110.95-4.198-81.101-65.024-108.646-170.752-148.275-44.544-16.742-93.645-35.277-135.629-63.181v210.995c42.24 19.456 71.68 61.901 71.68 111.411 0 67.891-54.989 122.88-122.88 122.88s-122.88-54.989-122.88-122.88c0-49.51 29.491-91.955 71.68-111.411v-391.629c-42.24-19.405-71.68-61.85-71.68-111.36 0-67.891 54.989-122.88 122.88-122.88s122.88 55.040 122.88 122.88c0 49.203-29.082 91.341-70.861 110.95 4.198 81.050 65.075 108.646 170.752 148.275 103.936 39.014 232.499 87.603 237.568 243.507 42.445 19.354 72.141 61.952 72.141 111.667zM307.2 826.112c39.117 0 70.861-31.693 70.861-70.912 0-39.117-31.744-70.912-70.861-70.912-39.168 0-70.861 31.795-70.861 70.912 0 39.219 31.693 70.912 70.861 70.912zM307.2 69.888c-39.219 0-70.912 31.795-70.912 70.912 0 39.219 31.693 70.912 70.912 70.912 39.117 0 70.861-31.693 70.861-70.912 0-39.117-31.744-70.912-70.861-70.912zM716.8 684.288c-39.219 0-70.912 31.795-70.912 70.912 0 39.219 31.693 70.912 70.912 70.912 39.117 0 70.861-31.693 70.861-70.912 0-39.117-31.744-70.912-70.861-70.912z" />
<glyph unicode="&#xe93a;" glyph-name="flow-cascade" d="M716.8 212.48c-49.51 0-91.955-29.491-111.411-71.68h-170.189c-42.394 0-76.8 34.406-76.8 76.8v197.12c23.347-11.162 49.203-17.92 76.8-17.92h170.189c19.456-42.189 61.85-71.68 111.411-71.68 67.891 0 122.88 55.040 122.88 122.88s-54.989 122.88-122.88 122.88c-49.51 0-91.955-29.491-111.411-71.68h-170.189c-42.394 0-76.8 34.406-76.8 76.8v118.989c42.24 19.456 71.68 61.901 71.68 111.411 0 67.891-54.989 122.88-122.88 122.88s-122.88-54.989-122.88-122.88c0-49.51 29.491-91.955 71.68-111.411v-477.389c0-98.97 80.23-179.2 179.2-179.2h170.189c19.456-42.189 61.85-71.68 111.411-71.68 67.891 0 122.88 55.040 122.88 122.88s-54.989 122.88-122.88 122.88zM716.8 518.912c39.117 0 70.861-31.693 70.861-70.912 0-39.117-31.744-70.912-70.861-70.912-39.219 0-70.912 31.795-70.912 70.912 0.051 39.219 31.744 70.912 70.912 70.912zM307.2 877.312c39.117 0 70.861-31.693 70.861-70.912 0-39.117-31.744-70.912-70.861-70.912-39.168 0-70.861 31.795-70.861 70.912 0 39.219 31.693 70.912 70.861 70.912zM716.8 18.688c-39.219 0-70.912 31.795-70.912 70.912 0 39.219 31.693 70.912 70.912 70.912 39.117 0 70.861-31.693 70.861-70.912 0-39.117-31.744-70.912-70.861-70.912z" />
<glyph unicode="&#xe93b;" glyph-name="flow-line" d="M563.2 252.211v391.578c42.24 19.456 71.68 61.85 71.68 111.411 0 67.891-54.989 122.88-122.88 122.88s-122.88-54.989-122.88-122.88c0-49.51 29.491-91.955 71.68-111.411v-391.629c-42.24-19.405-71.68-61.85-71.68-111.36 0-67.891 54.989-122.88 122.88-122.88s122.88 55.040 122.88 122.88c0 49.51-29.44 91.955-71.68 111.411zM512 826.112c39.117 0 70.861-31.693 70.861-70.912 0-39.117-31.744-70.912-70.861-70.912-39.168 0-70.861 31.795-70.861 70.912 0 39.219 31.693 70.912 70.861 70.912zM512 69.888c-39.219 0-70.912 31.795-70.912 70.912 0 39.219 31.693 70.912 70.912 70.912 39.117 0 70.861-31.693 70.861-70.912 0-39.117-31.744-70.912-70.861-70.912z" />
<glyph unicode="&#xe93c;" glyph-name="flow-parallel" d="M430.080 755.2c0 67.891-54.989 122.88-122.88 122.88s-122.88-54.989-122.88-122.88c0-49.51 29.491-91.955 71.68-111.411v-391.629c-42.24-19.405-71.68-61.85-71.68-111.36 0-67.891 54.989-122.88 122.88-122.88s122.88 55.040 122.88 122.88c0 49.51-29.491 91.955-71.68 111.411v391.578c42.24 19.456 71.68 61.901 71.68 111.411zM378.061 140.8c0-39.117-31.744-70.912-70.861-70.912-39.219 0-70.912 31.795-70.912 70.912 0 39.219 31.693 70.912 70.912 70.912 39.117 0 70.861-31.693 70.861-70.912zM307.2 684.288c-39.168 0-70.861 31.795-70.861 70.912 0 39.219 31.693 70.912 70.912 70.912 39.117 0 70.861-31.693 70.861-70.912-0.051-39.117-31.795-70.912-70.912-70.912zM768 252.211v391.578c42.24 19.456 71.68 61.85 71.68 111.411 0 67.891-54.989 122.88-122.88 122.88s-122.88-54.989-122.88-122.88c0-49.51 29.491-91.955 71.68-111.411v-391.629c-42.24-19.456-71.68-61.85-71.68-111.411 0-67.891 54.989-122.88 122.88-122.88s122.88 55.040 122.88 122.88c0 49.562-29.44 92.006-71.68 111.462zM645.939 755.2c0 39.219 31.693 70.912 70.912 70.912 39.117 0 70.861-31.693 70.861-70.912 0-39.117-31.744-70.912-70.861-70.912-39.219 0-70.912 31.795-70.912 70.912zM716.8 69.888c-39.219 0-70.912 31.795-70.912 70.912 0 39.219 31.693 70.912 70.912 70.912 39.117 0 70.861-31.693 70.861-70.912 0-39.117-31.744-70.912-70.861-70.912z" />
<glyph unicode="&#xe93d;" glyph-name="flow-tree" d="M921.6 201.011v118.989c0 98.97-80.23 179.2-179.2 179.2h-102.4c-42.394 0-76.8 34.406-76.8 76.8v118.989c42.24 19.456 71.68 61.85 71.68 111.411 0 67.891-54.989 122.88-122.88 122.88s-122.88-54.989-122.88-122.88c0-49.51 29.491-91.955 71.68-111.411v-118.989c0-42.394-34.406-76.8-76.8-76.8h-102.4c-98.97 0-179.2-80.23-179.2-179.2v-118.989c-42.24-19.456-71.68-61.901-71.68-111.411 0-67.891 54.989-122.88 122.88-122.88s122.88 55.040 122.88 122.88c0 49.51-29.491 91.955-71.68 111.411v118.989c0 42.394 34.406 76.8 76.8 76.8h102.4c27.597 0 53.453 6.758 76.8 17.92v-213.709c-42.24-19.456-71.68-61.901-71.68-111.411 0-67.891 54.989-122.88 122.88-122.88s122.88 55.040 122.88 122.88c0 49.51-29.491 91.955-71.68 111.411v213.709c23.347-11.162 49.203-17.92 76.8-17.92h102.4c42.394 0 76.8-34.406 76.8-76.8v-118.989c-42.24-19.456-71.68-61.85-71.68-111.411 0-67.891 54.989-122.88 122.88-122.88s122.88 55.040 122.88 122.88c0 49.51-29.44 91.955-71.68 111.411zM512 877.312c39.117 0 70.861-31.693 70.861-70.912 0-39.117-31.744-70.912-70.861-70.912-39.168 0-70.861 31.795-70.861 70.912 0 39.219 31.693 70.912 70.861 70.912zM153.6 18.688c-39.219 0-70.912 31.795-70.912 70.912 0 39.219 31.693 70.912 70.912 70.912 39.117 0 70.861-31.693 70.861-70.912 0-39.117-31.744-70.912-70.861-70.912zM512 18.688c-39.219 0-70.912 31.795-70.912 70.912 0 39.219 31.693 70.912 70.912 70.912 39.117 0 70.861-31.693 70.861-70.912 0-39.117-31.744-70.912-70.861-70.912zM870.4 18.688c-39.219 0-70.912 31.795-70.912 70.912 0 39.219 31.693 70.912 70.912 70.912 39.117 0 70.861-31.693 70.861-70.912 0-39.117-31.744-70.912-70.861-70.912z" />
<glyph unicode="&#xe93e;" glyph-name="forward2" d="M324.128 253.28l90.528-90.528 285.28 285.248-285.28 285.248-90.528-90.528 194.752-194.752-194.784-194.688z" />
<glyph unicode="&#xe93f;" glyph-name="headphones" d="M288 384h-64v-448h64c17.6 0 32 14.4 32 32v384c0 17.6-14.4 32-32 32zM736 384c-17.6 0-32-14.4-32-32v-384c0-17.6 14.4-32 32-32h64v448h-64zM1024 448c0 282.784-229.216 512-512 512s-512-229.216-512-512c0-61.408 10.816-120.288 30.656-174.848-19.488-33.216-30.656-71.872-30.656-113.152 0-112.832 83.456-206.176 192-221.728v443.424c-31.904-4.576-61.664-15.84-87.744-32.384-5.376 26.72-8.256 54.368-8.256 82.688 0 229.76 186.24 416 416 416s416-186.24 416-416c0-28.32-2.816-55.968-8.224-82.688-26.112 16.544-55.84 27.84-87.776 32.416v-443.456c108.544 15.52 192 108.864 192 221.728 0 41.28-11.168 79.936-30.656 113.152 19.84 54.56 30.656 113.44 30.656 174.88z" />
<glyph unicode="&#xe940;" glyph-name="heart1" d="M934.208 791.52c-116.16 115.072-301.824 117.472-422.112 9.216-120.32 108.256-305.952 105.856-422.144-9.216-119.712-118.528-119.712-310.688 0-429.28 34.208-33.888 353.696-350.144 353.696-350.144 37.856-37.504 99.072-37.504 136.896 0 0 0 349.824 346.304 353.696 350.112 119.744 118.592 119.744 310.72 0 429.28z" />
<glyph unicode="&#xe941;" glyph-name="heart2" d="M934.176 791.52c-116.128 115.072-301.824 117.472-422.112 9.216-120.32 108.256-305.952 105.856-422.144-9.216-119.712-118.528-119.712-310.688 0-429.28 34.208-33.888 353.696-350.112 353.696-350.112 37.856-37.504 99.072-37.504 136.896 0 0 0 349.824 346.304 353.696 350.112 119.744 118.592 119.744 310.752-0.032 429.28zM888.576 407.424l-353.696-350.112c-12.576-12.512-33.088-12.512-45.6 0l-353.696 350.112c-94.4 93.44-94.4 245.472 0 338.912 91.008 90.080 237.312 93.248 333.088 7.104l43.392-39.040 43.36 39.040c95.808 86.144 242.112 83.008 333.12-7.104 94.4-93.408 94.4-245.44 0.032-338.912zM296.096 719.968c8.864 0 16-7.168 16-16s-7.168-16-16-16h-0.032c-57.408 0-103.968-46.56-103.968-103.968v-0.032c0-8.832-7.168-16-16-16s-16 7.168-16 16v0c0 75.072 60.832 135.904 135.872 135.968 0.064 0 0.064 0.032 0.128 0.032z" />
<glyph unicode="&#xe942;" glyph-name="history" d="M602.368 869.632c232.864 0 421.632-188.768 421.632-421.632s-188.768-421.632-421.632-421.632v90.368c88.48 0 171.712 34.464 234.24 97.024s97.024 145.76 97.024 234.24c0 88.48-34.464 171.712-97.024 234.24s-145.76 97.024-234.24 97.024c-88.48 0-171.712-34.464-234.24-97.024-48.128-48.128-79.616-108.448-91.584-174.016h175.264l-210.816-240.928-210.816 240.928h154.88c29.248 204.32 204.928 361.408 417.344 361.408zM783.072 508.224v-120.48h-240.928v301.184h120.48v-180.704z" />
<glyph unicode="&#xe943;" glyph-name="home" d="M1024 369.568l-512 397.44-512-397.44v162.048l512 397.44 512-397.44zM896 384v-384h-256v256h-256v-256h-256v384l384 288z" />
<glyph unicode="&#xe944;" glyph-name="key" d="M704 960c-176.736 0-320-143.264-320-320 0-20.032 1.856-39.616 5.376-58.624l-389.376-389.376v-192c0-35.36 28.64-64 64-64h64v64h128v128h128v128h128l83.040 83.040c34.016-12.32 70.688-19.040 108.96-19.040 176.736 0 320 143.264 320 320s-143.264 320-320 320zM799.872 639.872c-53.024 0-96 42.976-96 96s42.976 96 96 96 96-42.976 96-96-42.976-96-96-96z" />
<glyph unicode="&#xe945;" glyph-name="lock" d="M784 544h-16v192c0 105.856-86.112 192-192 192h-128c-105.888 0-192-86.144-192-192v-192h-16c-26.4 0-48-21.6-48-48v-480c0-26.4 21.6-48 48-48h544c26.4 0 48 21.6 48 48v480c0 26.4-21.6 48-48 48zM384 736c0 35.296 28.672 64 64 64h128c35.328 0 64-28.704 64-64v-192h-256v192z" />
<glyph unicode="&#xe946;" glyph-name="loop2" d="M889.664 793.696c-93.6 102.208-228.16 166.304-377.696 166.304-282.784 0-512-229.216-512-512h96c0 229.76 186.24 416 416 416 123.008 0 233.536-53.408 309.696-138.304l-149.696-149.696h352v352l-134.336-134.304zM928 448c0-229.76-186.24-416-416-416-123.008 0-233.536 53.408-309.696 138.304l149.696 149.696h-352v-352l134.304 134.304c93.6-102.208 228.16-166.304 377.696-166.304 282.784 0 512 229.216 512 512h-96z" />
<glyph unicode="&#xe947;" glyph-name="mail" d="M80.576 689.344c24.992-13.408 371.104-199.36 384-206.272s29.6-10.176 46.4-10.176c16.8 0 33.472 3.264 46.4 10.176s359.008 192.864 384 206.272c25.024 13.472 48.704 65.856 2.752 65.856h-866.24c-45.92 0-22.272-52.384 2.72-65.856zM952.992 576.576c-28.416-14.784-378.208-197.056-395.616-206.176s-29.6-10.176-46.4-10.176-28.992 1.088-46.4 10.176-365.216 191.424-393.632 206.24c-19.968 10.432-19.776-1.792-19.776-11.2s0-373.408 0-373.408c0-21.504 28.992-51.2 51.2-51.2h819.2c22.208 0 51.2 29.696 51.2 51.2 0 0 0 363.936 0 373.344s0.192 21.664-19.808 11.2z" />
<glyph unicode="&#xe948;" glyph-name="mail4" d="M512 960c-282.784 0-512-229.216-512-512s229.216-512 512-512 512 229.216 512 512-229.216 512-512 512zM256 704h512c9.152 0 18.016-1.952 26.144-5.664l-282.144-329.152-282.144 329.184c8.128 3.712 16.992 5.664 26.144 5.664zM192 256v384c0 1.344 0.064 2.688 0.128 4l187.648-218.944-185.6-185.6c-1.44 5.344-2.208 10.88-2.208 16.544zM768 192h-512c-5.664 0-11.2 0.768-16.544 2.208l182.112 182.112 90.432-105.504 90.432 105.504 182.112-182.112c-5.344-1.44-10.88-2.208-16.544-2.208zM832 256c0-5.664-0.768-11.2-2.208-16.544l-185.6 185.6 187.68 218.944c0.096-1.312 0.128-2.656 0.128-4v-384z" />
<glyph unicode="&#xe949;" glyph-name="menu" d="M64 768h896v-192h-896zM64 512h896v-192h-896zM64 256h896v-192h-896z" />
<glyph unicode="&#xe94a;" glyph-name="menu2" d="M0 680.736h651.648v-139.648h-651.648v139.648zM0 494.56h651.648v-139.648h-651.648v139.648zM0 308.352h651.648v-139.648h-651.648v139.648zM721.44 401.44l139.648-139.648 139.648 139.648zM1000.736 448l-139.648 139.648-139.648-139.648z" />
<glyph unicode="&#xe94b;" glyph-name="menu3" d="M0 680.736h651.648v-139.648h-651.648v139.648zM0 494.56h651.648v-139.648h-651.648v139.648zM0 308.352h651.648v-139.648h-651.648v139.648zM721.44 494.56l139.648-139.648 139.648 139.648z" />
<glyph unicode="&#xe94c;" glyph-name="menu4" d="M0 680.736h651.648v-139.648h-651.648v139.648zM0 494.56h651.648v-139.648h-651.648v139.648zM0 308.352h651.648v-139.648h-651.648v139.648zM721.44 354.912l139.648 139.648 139.648-139.648z" />
<glyph unicode="&#xe94d;" glyph-name="mobile" d="M736 960h-448c-52.8 0-96-43.2-96-96v-832c0-52.8 43.2-96 96-96h448c52.8 0 96 43.2 96 96v832c0 52.8-43.2 96-96 96zM384 912h256v-32h-256v32zM512 0c-35.328 0-64 28.64-64 64s28.672 64 64 64 64-28.64 64-64-28.64-64-64-64zM768 192h-512v640h512v-640z" />
<glyph unicode="&#xe94e;" glyph-name="mobile2" d="M768 960h-576c-35.2 0-64-28.8-64-64v-896c0-35.2 28.8-64 64-64h576c35.2 0 64 28.8 64 64v896c0 35.2-28.8 64-64 64zM480-17.76c-27.488 0-49.792 22.304-49.792 49.76s22.304 49.76 49.792 49.76 49.76-22.304 49.76-49.76-22.304-49.76-49.792-49.76zM768 128h-576v704h576v-704z" />
<glyph unicode="&#xe94f;" glyph-name="music" d="M960 960h64v-736c0-88.352-100.288-160-224-160s-224 71.648-224 160c0 88.352 100.288 160 224 160 62.688 0 119.36-18.4 160-48.032v368.064l-512-113.792v-494.208c0-88.384-100.288-160-224-160s-224 71.616-224 160c0 88.384 100.288 160 224 160 62.688 0 119.328-18.4 160-48.032v624.032l576 128z" />
<glyph unicode="&#xe950;" glyph-name="pen" d="M1018.176 668.096l-286.048 286.048c-9.344 9.344-21.632 7.232-27.36-4.672l-38.368-79.904 267.2-267.2 79.904 38.368c11.904 5.696 14.016 18.016 4.672 27.36zM615.392 824.608l-263.392-21.952c-17.504-2.176-32.064-5.888-37.088-28.768 0-0.032 0-0.032-0.032-0.064-71.424-343.072-314.88-677.856-314.88-677.856l57.376-57.376 272 272c-5.984 12.544-9.376 26.56-9.376 41.376 0 53.024 42.976 96 96 96s96-42.976 96-96-42.976-96-96-96c-14.816 0-28.864 3.36-41.376 9.376l-272-272 57.376-57.376c0 0 334.784 243.456 677.856 314.88 0.032 0 0.032 0 0.064 0.032 22.848 5.024 26.592 19.584 28.736 37.088l21.952 263.392-273.216 273.248z" />
<glyph unicode="&#xe951;" glyph-name="pencil" d="M864 960c88.352 0 160-71.648 160-160 0-36.032-11.904-69.248-32-96l-64-64-224 224 64 64c26.752 20.096 59.968 32 96 32zM64 224l-64-288 288 64 592 592-224 224-592-592zM715.584 596.416l-448-448-55.168 55.168 448 448 55.168-55.168z" />
<glyph unicode="&#xe952;" glyph-name="pencil2" d="M384 320l128 64 448 448-64 64-448-448-64-128zM289.312 92.896c-31.648 66.72-65.664 100.768-132.384 132.384l99.104 272.8 128 77.92 384 384h-192l-384-384-192-640 640 192 384 384v192l-384-384-77.92-128z" />
<glyph unicode="&#xe953;" glyph-name="play1" d="M512 960c-282.752 0-512-229.216-512-512s229.216-512 512-512 512 229.216 512 512-229.216 512-512 512zM384 672l384-224-384-224v448z" />
<glyph unicode="&#xe954;" glyph-name="play2" d="M512 960c-282.752 0-512-229.216-512-512s229.216-512 512-512 512 229.216 512 512-229.216 512-512 512zM512 32c-229.76 0-416 186.24-416 416s186.24 416 416 416 416-186.24 416-416-186.24-416-416-416zM384 672l384-224-384-224z" />
<glyph unicode="&#xe955;" glyph-name="play3" d="M195.808 818.656l653.728-381.344-653.728-381.312z" />
<glyph unicode="&#xe956;" glyph-name="plus" d="M992 576h-352v352c0 17.664-14.336 32-32 32h-192c-17.664 0-32-14.336-32-32v-352h-352c-17.664 0-32-14.336-32-32v-192c0-17.664 14.336-32 32-32h352v-352c0-17.664 14.336-32 32-32h192c17.664 0 32 14.336 32 32v352h352c17.664 0 32 14.336 32 32v192c0 17.664-14.336 32-32 32z" />
<glyph unicode="&#xe957;" glyph-name="qq" d="M226.976 489.088c-2.4 5.76-3.616 13.664-3.616 23.68 0 6.048 1.664 13.504 5.024 22.304 3.328 8.768 7.008 15.616 10.944 20.48-0.32 6.688 0.832 14.72 3.392 24.128 2.592 9.408 6.016 15.936 10.24 19.584 0 42.176 14.016 86.016 42.112 131.392 28.064 45.376 61.088 77.216 99.040 95.392 42.176 20.032 91.392 30.048 147.584 30.048 40.384 0 80.768-8.352 121.152-25.056 14.848-6.368 28.512-13.664 40.96-21.856s23.2-16.672 32.32-25.504c9.088-8.832 17.44-19.136 25.056-30.976 7.552-11.84 13.952-23.072 19.136-33.696 5.12-10.624 10.048-23.456 14.816-38.496 4.704-15.040 8.608-28.608 11.584-40.736 3.008-12.16 6.336-27.040 10.016-44.64l0.48-2.272c16.704-25.184 25.024-48 25.024-68.32 0-4.224-1.312-10.304-4.064-18.208s-4.128-13.664-4.128-17.312c0-0.32 0.256-0.832 0.672-1.6s0.96-1.504 1.6-2.272c0.672-0.736 0.928-1.28 0.896-1.6 23.328-34.624 41.664-67.168 54.88-97.728 13.184-30.528 19.776-62.208 19.776-94.944 0-13.024-2.944-28.224-8.832-45.6-5.952-17.248-14.368-25.952-25.312-25.952-2.72 0-5.696 1.12-8.864 3.424-3.2 2.24-6.080 4.928-8.672 7.936-2.528 3.008-5.44 6.944-8.64 11.808-3.2 4.896-5.632 8.864-7.328 12.064-1.632 3.2-3.68 7.136-6.112 11.872-2.432 4.672-3.808 7.36-4.096 7.936-0.352 0.32-0.768 0.512-1.376 0.512l-2.272-1.888c-17.952-46.752-37.984-80.608-60.16-101.568 6.080-6.048 15.424-11.936 28-17.536 12.64-5.632 23.072-11.904 31.424-18.944 8.384-6.976 13.76-16.8 16.192-29.568-0.64-1.248-1.216-3.648-1.856-7.328s-1.696-6.368-3.2-8.192c-19.424-29.44-65.28-44.192-137.568-44.192-16.064 0-32.832 1.312-50.336 4.064-17.472 2.752-32.384 5.824-44.64 9.184-12.288 3.328-28.16 7.872-47.584 13.632-4.576 1.504-8.064 2.624-10.464 3.2-4.256 1.248-11.232 1.92-20.928 2.048-9.76 0.128-15.808 0.352-18.208 0.64-12.512-13.632-31.84-23.488-58.080-29.568s-51.84-9.12-76.736-9.12c-10.656 0-21.12 0.192-31.424 0.64-10.304 0.48-24.416 1.824-42.368 4.128-17.92 2.24-33.248 5.44-45.984 9.376-12.704 3.904-24.032 9.952-33.92 18.144-9.856 8.224-14.816 17.952-14.816 29.152 0 12.128 1.536 21.184 4.576 27.136 3.008 5.952 9.248 13.312 18.688 22.048 3.36 0.608 9.472 2.592 18.464 5.952 8.928 3.328 16.448 5.184 22.528 5.44 1.216 0 3.328 0.288 6.368 0.896 0.608 0.608 0.896 1.216 0.896 1.824l-0.896 1.408c-14.592 3.328-30.976 19.36-49.184 48.032-18.208 28.64-29.312 52.384-33.248 71.296l-2.272 1.344c-1.216 0-3.040-3.072-5.44-9.12-5.472-12.448-13.76-23.744-24.832-33.952-11.168-10.016-22.944-15.712-35.36-16.96h-0.48c-1.216 0-2.144 0.672-2.72 2.048-0.608 1.312-1.344 2.176-2.272 2.464-6.976 16.416-10.464 31.584-10.464 45.536 0 83.52 38.272 154.272 114.784 212.256l0.128 0.256z" />
<glyph unicode="&#xe958;" glyph-name="qzone" d="M996 552.096c0 10.592 0 7.68-10.592 7.68h-285.888l-42.368 75.456-116.48 223.808c-10.592 0-10.592 0-21.216 0l-105.856-223.808-42.368-75.456h-331.296v-4.8l59.744-42.4 167.552-148.288-38.016-339.008c0-10.592 2.176-10.592 23.328-10.592l276.384 169.504 275.808-169.504c10.624 0 10.88 0 21.472 10.592l-52.8 339.008 158.88 136.288 63.616 51.52zM297.184 227.264l307.040 250.272-285.888 48.992h434.112l-264.704-239.68 275.328-59.616h-465.888z" />
<glyph unicode="&#xe959;" glyph-name="search" d="M992.256 88.608l-242.56 206.304c-25.088 22.56-51.904 32.928-73.568 31.904 57.248 67.072 91.84 154.080 91.84 249.184 0 212.096-171.904 384-384 384s-384-171.904-384-384 171.904-384 384-384c95.104 0 182.112 34.592 249.184 91.84-1.024-21.664 9.376-48.48 31.904-73.568l206.304-242.56c35.328-39.264 93.024-42.56 128.224-7.36s31.872 92.896-7.36 128.224zM384 320c-141.376 0-256 114.592-256 256s114.624 256 256 256 256-114.624 256-256-114.592-256-256-256z" />
<glyph unicode="&#xe95a;" glyph-name="share2" d="M864 256c-45.152 0-85.92-18.72-115.008-48.832l-431.008 215.52c1.312 8.256 2.016 16.704 2.016 25.312s-0.704 17.088-2.016 25.312l431.008 215.52c29.088-30.112 69.856-48.832 115.008-48.832 88.352 0 160 71.648 160 160s-71.648 160-160 160-160-71.648-160-160c0-8.608 0.704-17.088 2.016-25.344l-431.008-215.488c-29.088 30.112-69.856 48.832-115.008 48.832-88.352 0-160-71.648-160-160s71.648-160 160-160c45.152 0 85.92 18.72 115.008 48.832l431.008-215.52c-1.312-8.256-2.016-16.704-2.016-25.312 0-88.352 71.648-160 160-160s160 71.648 160 160c0 88.352-71.648 160-160 160z" />
<glyph unicode="&#xe95b;" glyph-name="shrink" d="M576 512h416l-160 160 192 192-96 96-192-192-160 160zM576 384v-416l160 160 192-192 96 96-192 192 160 160zM448 384h-416l160-160-192-192 96-96 192 192 160-160zM448 512v416l-160-160-192 192-96-96 192-192-160-160z" />
<glyph unicode="&#xe95c;" glyph-name="shrink2" d="M448 384v-416l-160 160-192-192-96 96 192 192-160 160zM1024 864l-192-192 160-160h-416v416l160-160 192 192z" />
<glyph unicode="&#xe95d;" glyph-name="spinner2" d="M1024 448c-1.28 66.88-15.776 133.504-42.592 194.464-26.688 60.992-65.472 116.256-113.024 161.92-47.552 45.696-103.936 81.824-164.992 105.632-61.024 23.936-126.592 35.36-191.392 33.984-64.832-1.28-129.312-15.36-188.352-41.344-59.040-25.888-112.544-63.488-156.736-109.568s-79.168-100.704-102.176-159.808c-23.136-59.040-34.144-122.528-32.768-185.28 1.28-62.752 14.976-125.152 40.128-182.208 25.088-57.12 61.472-108.832 106.112-151.552s97.472-76.512 154.624-98.72c57.12-22.304 118.432-32.896 179.136-31.52 60.704 1.312 120.96 14.56 176.096 38.912 55.168 24.288 105.12 59.488 146.368 102.624s73.856 94.24 95.264 149.408c13.024 33.472 21.856 68.384 26.528 103.808 1.248-0.096 2.496-0.128 3.744-0.128 35.36 0 64 28.64 64 64 0 1.792-0.096 3.552-0.256 5.312h0.256zM922.304 278.048c-23.456-53.216-57.472-101.408-99.168-141.184-41.664-39.808-91.008-71.168-144.256-91.808-53.216-20.672-110.304-30.432-166.88-29.088-56.608 1.312-112.576 13.728-163.84 36.48-51.232 22.688-97.696 55.488-136 95.712-38.336 40.192-68.544 87.744-88.32 139.072-19.872 51.264-29.216 106.208-27.872 160.768 1.312 54.56 13.344 108.416 35.264 157.696 21.856 49.28 53.504 93.984 92.224 130.816s84.544 65.856 133.888 84.832c49.344 19.040 102.112 28 154.624 26.656 52.48-1.312 104.224-12.928 151.552-34.016 47.36-21.056 90.24-51.488 125.632-88.768s63.232-81.28 81.408-128.672c18.24-47.392 26.784-98.080 25.408-148.512h0.256c-0.16-1.76-0.256-3.52-0.256-5.312 0-33.024 24.992-60.192 57.088-63.616-6.24-34.816-16.544-68.832-30.784-100.992z" />
<glyph unicode="&#xe95e;" glyph-name="spinner11" d="M1024 576h-384l143.52 143.52c-72.544 72.512-168.96 112.48-271.52 112.48s-199.008-39.936-271.52-112.48c-72.512-72.544-112.48-168.96-112.48-271.52s39.936-199.008 112.48-271.52c72.544-72.512 168.96-112.48 271.52-112.48s199.008 39.936 271.52 112.48c6.048 6.048 11.872 12.288 17.472 18.656l96.32-84.288c-93.856-107.168-231.648-174.848-385.312-174.848-282.784 0-512 229.216-512 512s229.216 512 512 512c141.376 0 269.376-57.312 362.016-149.984l149.984 149.984v-384z" />
<glyph unicode="&#xe95f;" glyph-name="stack" d="M1024 640l-512 256-512-256 512-256 512 256zM512 811.040l342.048-171.040-342.048-171.040-342.048 171.040 342.048 171.040zM921.44 499.264l102.56-51.264-512-256-512 256 102.56 51.264 409.44-204.736zM921.44 307.264l102.56-51.264-512-256-512 256 102.56 51.264 409.44-204.736z" />
<glyph unicode="&#xe960;" glyph-name="star-empty" d="M1024 562.944l-353.792 51.424-158.208 320.576-158.208-320.576-353.792-51.424 256-249.536-60.448-352.352 316.448 166.336 316.448-166.336-60.448 352.352 256 249.536zM512 206.496l-223.456-117.472 42.688 248.832-180.768 176.224 249.856 36.32 111.712 226.4 111.712-226.4 249.856-36.288-180.768-176.224 42.688-248.832-223.456 117.472z" />
<glyph unicode="&#xe961;" glyph-name="star-full" d="M1024 562.944l-353.792 51.424-158.208 320.576-158.208-320.576-353.792-51.424 256-249.536-60.448-352.352 316.448 166.336 316.448-166.336-60.448 352.352 256 249.536z" />
<glyph unicode="&#xe962;" glyph-name="stats-bars" d="M0 128h1024v-128h-1024zM128 384h128v-192h-128zM320 640h128v-448h-128zM512 448h128v-256h-128zM704 832h128v-640h-128z" />
<glyph unicode="&#xe963;" glyph-name="stop1" d="M512 960c-282.752 0-512-229.216-512-512s229.216-512 512-512 512 229.216 512 512-229.216 512-512 512zM320 640h384v-384h-384v384z" />
<glyph unicode="&#xe964;" glyph-name="stop2" d="M512 960c-282.752 0-512-229.216-512-512s229.216-512 512-512 512 229.216 512 512-229.216 512-512 512zM512 32c-229.76 0-416 186.24-416 416s186.24 416 416 416c229.76 0 416-186.24 416-416s-186.24-416-416-416zM320 640h384v-384h-384v384z" />
<glyph unicode="&#xe965;" glyph-name="stop3" d="M128 832h768v-768h-768v768z" />
<glyph unicode="&#xe966;" glyph-name="stopwatch" d="M512 766.784v65.216h128v64c0 35.36-28.64 64-64 64h-192c-35.36 0-64-28.64-64-64v-64h128v-65.216c-214.784-16.352-384-195.808-384-414.784 0-229.76 186.24-416 416-416s416 186.24 416 416c0 218.976-169.216 398.432-384 414.784zM706.272 125.728c-60.448-60.448-140.8-93.728-226.272-93.728s-165.824 33.28-226.272 93.728c-60.448 60.448-93.728 140.8-93.728 226.272s33.28 165.824 93.728 226.272c58.048 58.048 134.432 91.008 216.128 93.536l-21.664-314.016c-1.856-26.304 12.448-37.792 31.84-37.792s33.696 11.52 31.84 37.792l-21.664 314.016c81.664-2.528 158.080-35.52 216.128-93.536 60.448-60.448 93.728-140.8 93.728-226.272s-33.28-165.824-93.728-226.272z" />
<glyph unicode="&#xe967;" glyph-name="switch" d="M640 813.408v-135.968c36.192-15.808 69.504-38.4 98.272-67.168 60.448-60.448 93.728-140.8 93.728-226.272s-33.28-165.824-93.728-226.272c-60.448-60.448-140.8-93.728-226.272-93.728s-165.824 33.28-226.272 93.728c-60.448 60.448-93.728 140.8-93.728 226.272s33.28 165.824 93.728 226.272c28.768 28.768 62.080 51.392 98.272 67.168v135.968c-185.056-55.072-320-226.464-320-429.408 0-247.424 200.576-448 448-448s448 200.576 448 448c0 202.944-134.944 374.336-320 429.408zM448 960h128v-512h-128z" />
<glyph unicode="&#xe968;" glyph-name="thumbs-up" d="M698.784 583.072c-6.816 18.176 181.184 186.048 71.584 322.112-25.664 31.808-112.704-152.32-236.288-235.68-68.192-45.984-226.88-143.872-226.88-197.984v-350.304c0-65.088 251.584-133.984 442.784-133.984 70.080 0 171.616 439.104 171.616 508.832 0 70.048-216.128 68.8-222.816 87.040zM256 578.208c-33.696 0-153.6-20.48-153.6-159.904v-248.224c0-139.328 119.904-154.688 153.6-154.688 33.632 0-51.2 29.28-51.2 115.712v326.304c0 90.528 84.832 120.768 51.2 120.768z" />
<glyph unicode="&#xe969;" glyph-name="trophy" d="M832 768v128h-640v-128h-192v-128c0-106.048 85.952-192 192-192 20.064 0 39.424 3.072 57.632 8.8 46.176-66.016 116.608-113.792 198.368-130.4v-198.4h-64c-70.688 0-128-57.312-128-128h512c0 70.688-57.312 128-128 128h-64v198.4c81.76 16.608 152.192 64.384 198.368 130.4 18.176-5.728 37.536-8.8 57.632-8.8 106.048 0 192 85.952 192 192v128h-192zM192 524c-63.968 0-116 52.032-116 116v64h116v-64c0-40.192 7.424-78.624 20.96-114.080-6.816-1.248-13.792-1.92-20.96-1.92zM948 640c0-63.968-52.032-116-116-116-7.168 0-14.144 0.672-20.96 1.92 13.536 35.424 20.96 73.888 20.96 114.080v64h116v-64z" />
<glyph unicode="&#xe96a;" glyph-name="t-shirt" d="M1000 753.984l-160 128c-11.36 9.088-25.504 14.016-40 14.016h-576c-14.528 0-28.64-4.928-40-14.016l-160-128c-20.928-16.768-29.184-44.8-20.704-70.24l64-192c6.304-18.912 21.088-33.824 39.968-40.288 6.72-2.304 13.76-3.456 20.736-3.456 11.136 0 22.176 2.912 32 8.576v-392.576c0-35.328 28.672-64 64-64h576c35.328 0 64 28.672 64 64v392.576c9.824-5.664 20.864-8.576 32-8.576 7.008 0 14.016 1.152 20.736 3.456 18.88 6.464 33.632 21.376 39.936 40.288l64 192c8.512 25.44 0.256 53.472-20.672 70.24zM632.128 832c-17.696-37.152-64.576-64-120.128-64s-102.464 26.848-120.128 64h240.256zM896 512l-96 64v-512h-576v512l-96-64-64 192 160 128h133.664c17.824-55.104 79.872-96 154.336-96s136.512 40.896 154.304 96h133.696l160-128-64-192z" />
<glyph unicode="&#xe96b;" glyph-name="t-shirt2" d="M984.736 744.416l-155.008 124c-11.008 8.8-24.704 13.6-38.752 13.6h-557.984c-14.080 0-27.744-4.768-38.752-13.6l-155.008-124c-20.256-16.256-28.256-43.392-20.032-68.064l62.016-186.016c6.112-18.304 20.416-32.768 38.72-39.040 6.496-2.208 13.344-3.328 20.064-3.328 10.784 0 21.472 2.816 31.008 8.32v-380.32c0-34.24 27.776-62.016 62.016-62.016h558.016c34.24 0 62.016 27.776 62.016 62.016v380.32c9.472-5.504 20.192-8.32 30.976-8.32 6.784 0 13.568 1.12 20.096 3.328 18.304 6.272 32.576 20.704 38.688 39.040l62.016 186.016c8.256 24.672 0.256 51.808-20.032 68.064zM628.384 820c-17.12-36-62.528-62.016-116.384-62.016s-99.264 26.016-116.352 62.016h232.736z" />
<glyph unicode="&#xe96c;" glyph-name="unlocked" d="M768 896c105.856 0 192-86.144 192-192v-192h-128v192c0 35.296-28.704 64-64 64h-128c-35.296 0-64-28.704-64-64v-192h16c26.4 0 48-21.6 48-48v-480c0-26.4-21.6-48-48-48h-544c-26.4 0-48 21.6-48 48v480c0 26.4 21.6 48 48 48h400v192c0 105.856 86.144 192 192 192h128z" />
<glyph unicode="&#xe96d;" glyph-name="up2" d="M706.72 260.096l90.528 90.528-285.248 285.28-285.248-285.28 90.528-90.496 194.752 194.784 194.688-194.784z" />
<glyph unicode="&#xe96e;" glyph-name="user" d="M576 253.376v52.768c70.496 39.712 128 138.784 128 237.824 0 159.072 0 288-192 288s-192-128.928-192-288c0-99.072 57.504-198.112 128-237.824v-52.768c-217.088-17.76-384-124.416-384-253.376h896c0 128.96-166.912 235.648-384 253.376z" />
<glyph unicode="&#xe96f;" glyph-name="user-check" d="M960 352l-288-288-96 96-64-64 160-160 352 352zM448 192h320v115.136c-67.232 39.2-156.32 66.112-256 74.272v52.768c70.496 39.744 128 138.784 128 237.824 0 159.072 0 288-192 288s-192-128.928-192-288c0-99.072 57.504-198.112 128-237.824v-52.768c-217.088-17.76-384-124.416-384-253.376h448v64z" />
<glyph unicode="&#xe970;" glyph-name="user-minus" d="M384 224c0 151.232 95.872 280.48 230.048 330.208 16.288 36.544 25.952 77.152 25.952 117.792 0 159.072 0 288-192 288s-192-128.928-192-288c0-99.072 57.504-198.112 128-237.824v-52.768c-217.088-17.76-384-124.416-384-253.376h397.312c-8.672 30.528-13.312 62.72-13.312 96zM736 512c-159.072 0-288-128.928-288-288s128.928-288 288-288c159.072 0 288 128.928 288 288s-128.928 288-288 288zM896 192h-320v64h320v-64z" />
<glyph unicode="&#xe971;" glyph-name="user-plus" d="M384 224c0 151.232 95.872 280.48 230.048 330.208 16.288 36.544 25.952 77.152 25.952 117.792 0 159.072 0 288-192 288s-192-128.928-192-288c0-99.072 57.504-198.112 128-237.824v-52.768c-217.088-17.76-384-124.416-384-253.376h397.312c-8.672 30.528-13.312 62.72-13.312 96zM736 512c-159.072 0-288-128.928-288-288s128.928-288 288-288c159.072 0 288 128.928 288 288s-128.928 288-288 288zM896 192h-128v-128h-64v128h-128v64h128v128h64v-128h128v-64z" />
<glyph unicode="&#xe972;" glyph-name="users" d="M682.656 218.112v46.912c62.656 35.296 113.792 123.36 113.792 211.392 0 141.408 0 256-170.656 256s-170.656-114.592-170.656-256c0-88.064 51.104-176.096 113.792-211.392v-46.912c-192.96-15.776-341.344-110.592-341.344-225.216h796.448c0 114.624-148.352 209.472-341.344 225.216zM290.848 196.16c49.152 32.128 110.272 56.576 177.568 71.488-13.376 15.808-25.504 33.44-35.968 52.448-27.008 49.088-41.344 103.168-41.344 156.352 0 76.48 0 148.704 27.2 207.776 26.4 57.344 73.888 92.864 141.536 106.208-15.040 67.968-55.072 112.672-161.632 112.672-170.656 0-170.656-114.592-170.656-256 0-88.064 51.104-176.096 113.792-211.392v-46.912c-192.96-15.776-341.344-110.592-341.344-225.216h248c12.928 11.456 27.2 22.4 42.848 32.608z" />
<glyph unicode="&#xe973;" glyph-name="volume-decrease" d="M512 512h512v-128h-512v128zM416 0c-8.32 0-16.512 3.264-22.624 9.376l-246.624 246.624h-114.752c-17.664 0-32 14.336-32 32v320c0 17.664 14.336 32 32 32h114.752l246.624 246.624c9.152 9.152 22.912 11.904 34.88 6.944s19.744-16.608 19.744-29.568v-832c0-12.928-7.808-24.608-19.744-29.568-3.968-1.632-8.128-2.432-12.256-2.432z" />
<glyph unicode="&#xe974;" glyph-name="volume-high" d="M837.696 62.080c-11.552 0-23.136 4.384-31.968 13.216-17.664 17.664-17.664 46.24 0 63.872 82.496 82.496 127.904 192.16 127.904 308.8s-45.408 226.304-127.904 308.8c-17.664 17.664-17.664 46.272 0 63.872s46.272 17.664 63.872 0c99.552-99.552 154.368-231.904 154.368-372.672s-54.816-273.152-154.368-372.672c-8.832-8.832-20.384-13.216-31.968-13.216zM677.184 147.264c-11.552 0-23.136 4.384-31.968 13.216-17.664 17.664-17.664 46.24 0 63.872 123.296 123.296 123.296 323.904 0 447.232-17.664 17.664-17.664 46.272 0 63.872s46.272 17.664 63.872 0c76.8-76.8 119.072-178.912 119.072-287.488s-42.272-210.688-119.072-287.488c-8.832-8.832-20.384-13.216-31.968-13.216v0zM516.736 232.448c-11.552 0-23.136 4.384-31.968 13.216-17.664 17.664-17.664 46.24 0 63.872 76.32 76.32 76.32 200.512 0 276.832-17.664 17.664-17.664 46.272 0 63.872s46.24 17.664 63.872 0c111.552-111.552 111.552-293.088 0-404.64-8.832-8.832-20.384-13.216-31.968-13.216zM391.52 26.368c-7.84 0-15.552 3.072-21.28 8.832l-232.128 232.128h-108c-16.64 0-30.112 13.504-30.112 30.112v301.184c0 16.64 13.504 30.112 30.112 30.112h108l232.128 232.128c8.608 8.608 21.568 11.2 32.832 6.528s18.592-15.616 18.592-27.84v-783.072c0-12.16-7.36-23.168-18.592-27.84-3.744-1.536-7.648-2.304-11.52-2.304z" />
<glyph unicode="&#xe975;" glyph-name="volume-increase" d="M1024 384h-192v-192h-128v192h-192v128h192v192h128v-192h192v-128zM416 0c-8.32 0-16.512 3.264-22.624 9.376l-246.624 246.624h-114.752c-17.664 0-32 14.336-32 32v320c0 17.664 14.336 32 32 32h114.752l246.624 246.624c9.152 9.152 22.912 11.904 34.88 6.944s19.744-16.608 19.744-29.568v-832c0-12.928-7.808-24.608-19.744-29.568-3.968-1.632-8.128-2.432-12.256-2.432z" />
<glyph unicode="&#xe976;" glyph-name="volume-low" d="M549.024 218.976c-12.288 0-24.576 4.672-33.952 14.048-18.752 18.752-18.752 49.12 0 67.872 81.088 81.088 81.088 213.056 0 294.144-18.752 18.752-18.752 49.152 0 67.872s49.12 18.752 67.872 0c118.528-118.528 118.528-311.392 0-429.92-9.376-9.376-21.664-14.048-33.952-14.048zM416 0c-8.32 0-16.512 3.264-22.624 9.376l-246.624 246.624h-114.752c-17.664 0-32 14.336-32 32v320c0 17.664 14.336 32 32 32h114.752l246.624 246.624c9.152 9.152 22.912 11.904 34.88 6.944s19.744-16.608 19.744-29.568v-832c0-12.928-7.808-24.608-19.744-29.568-3.968-1.632-8.128-2.432-12.256-2.432z" />
<glyph unicode="&#xe977;" glyph-name="volume-medium" d="M719.52 128.48c-12.288 0-24.576 4.672-33.952 14.048-18.752 18.752-18.752 49.12 0 67.872 131.008 131.008 131.008 344.16 0 475.168-18.752 18.752-18.752 49.152 0 67.872s49.152 18.752 67.872 0c81.6-81.6 126.528-190.080 126.528-305.472s-44.928-223.872-126.528-305.472c-9.376-9.376-21.664-14.048-33.952-14.048v0zM549.024 218.976c-12.288 0-24.576 4.672-33.952 14.048-18.752 18.752-18.752 49.12 0 67.872 81.088 81.088 81.088 213.056 0 294.144-18.752 18.752-18.752 49.152 0 67.872s49.12 18.752 67.872 0c118.528-118.528 118.528-311.392 0-429.92-9.376-9.376-21.664-14.048-33.952-14.048zM416 0c-8.32 0-16.512 3.264-22.624 9.376l-246.624 246.624h-114.752c-17.664 0-32 14.336-32 32v320c0 17.664 14.336 32 32 32h114.752l246.624 246.624c9.152 9.152 22.912 11.904 34.88 6.944s19.744-16.608 19.744-29.568v-832c0-12.928-7.808-24.608-19.744-29.568-3.968-1.632-8.128-2.432-12.256-2.432z" />
<glyph unicode="&#xe978;" glyph-name="volume-mute" d="M416 0c-8.32 0-16.512 3.264-22.624 9.376l-246.624 246.624h-114.752c-17.664 0-32 14.336-32 32v320c0 17.664 14.336 32 32 32h114.752l246.624 246.624c9.152 9.152 22.912 11.904 34.88 6.944s19.744-16.608 19.744-29.568v-832c0-12.928-7.808-24.608-19.744-29.568-3.968-1.632-8.128-2.432-12.256-2.432z" />
<glyph unicode="&#xe979;" glyph-name="volume-mute2" d="M960 340.864v-84.864h-84.864l-107.136 107.136-107.136-107.136h-84.864v84.864l107.136 107.136-107.136 107.136v84.864h84.864l107.136-107.136 107.136 107.136h84.864v-84.864l-107.136-107.136 107.136-107.136zM416 0c-8.32 0-16.512 3.264-22.624 9.376l-246.624 246.624h-114.752c-17.664 0-32 14.336-32 32v320c0 17.664 14.336 32 32 32h114.752l246.624 246.624c9.152 9.152 22.912 11.904 34.88 6.944s19.744-16.608 19.744-29.568v-832c0-12.928-7.808-24.608-19.744-29.568-3.968-1.632-8.128-2.432-12.256-2.432z" />
<glyph unicode="&#xe97a;" glyph-name="warning" d="M513.312 920c-262.912 0-476-213.12-476-476s213.12-476 476-476c262.88 0 476 213.12 476 476s-213.12 476-476 476zM513.312 169.664c-35.648 0-64.544 28.928-64.544 64.544s28.896 64.544 64.544 64.544c35.616 0 64.544-28.928 64.544-64.544s-28.896-64.544-64.544-64.544zM577.856 427.84c0-35.648-28.928-64.544-64.544-64.544s-64.544 28.896-64.544 64.544v193.632c0 35.648 28.896 64.544 64.544 64.544s64.544-28.896 64.544-64.544v-193.632z" />
<glyph unicode="&#xe97b;" glyph-name="warning2" d="M577.856 234.24c0-35.648-28.896-64.544-64.544-64.544s-64.544 28.896-64.544 64.544c0 35.648 28.896 64.544 64.544 64.544s64.544-28.896 64.544-64.544zM577.856 427.84c0-35.648-28.928-64.544-64.544-64.544s-64.544 28.896-64.544 64.544v193.632c0 35.648 28.896 64.544 64.544 64.544s64.544-28.896 64.544-64.544v-193.632zM512 920c-262.912 0-476-213.12-476-476s213.12-476 476-476c262.88 0 476 213.12 476 476s-213.12 476-476 476zM882.016 444c0-204.352-165.664-370.016-370.016-370.016s-370.016 165.664-370.016 370.016 165.664 370.016 370.016 370.016 370.016-165.664 370.016-370.016z" />
<glyph unicode="&#xe97c;" glyph-name="wechat" d="M286.624 662.976q0 20.256-12.352 32.64t-32.64 12.352q-21.248 0-37.568-12.608t-16.288-32.384q0-19.264 16.288-31.872t37.568-12.576q20.256 0 32.64 12.128t12.352 32.384zM653.824 412.416q0 13.824-12.576 24.704t-32.384 10.88q-13.344 0-24.48-11.136t-11.136-24.48q0-13.824 11.136-24.96t24.48-11.136q19.744 0 32.384 10.88t12.576 25.216zM537.216 662.976q0 20.256-12.128 32.64t-32.384 12.352q-21.248 0-37.568-12.608t-16.288-32.384q0-19.264 16.288-31.872t37.568-12.576q20.256 0 32.384 12.128t12.128 32.384zM851.040 412.416q0 13.824-12.832 24.704t-32.128 10.88q-13.344 0-24.48-11.136t-11.136-24.48q0-13.824 11.136-24.96t24.48-11.136q19.264 0 32.128 10.88t12.832 25.216zM719.552 608.64q-15.328 1.952-34.592 1.952-83.52 0-153.696-38.048t-110.464-103.040-40.256-142.080q0-38.56 11.36-75.104-17.312-1.504-33.6-1.504-12.832 0-24.704 0.736t-27.168 3.2-22.016 3.456-26.912 5.216-24.704 5.216l-125.024-62.784 35.584 107.744q-143.328 100.32-143.328 242.176 0 83.52 48.192 153.696t130.464 110.464 179.648 40.256q86.976 0 164.352-32.64t129.504-90.208 67.488-128.736zM1012.128 331.36q0-57.824-33.856-110.464t-91.68-95.616l27.168-89.44-98.368 53.856q-74.144-18.304-107.744-18.304-83.52 0-153.696 34.848t-110.464 94.656-40.256 130.464 40.256 130.464 110.464 94.656 153.696 34.848q79.552 0 149.76-34.848t112.448-94.912 42.272-130.208z" />
<glyph unicode="&#xe97d;" glyph-name="weibo" d="M385.728 226.304q12 19.424 6.304 39.424t-25.696 28.576q-19.424 8-41.728 0.576t-34.304-26.304q-12.576-19.424-7.424-39.136t24.576-28.864 42.56-1.44 35.744 27.136zM439.456 295.424q4.576 7.424 2.016 15.136t-9.984 10.56q-8 2.848-16.288-0.288t-12.288-10.56q-9.728-17.696 7.424-25.696 8-2.848 16.576 0.288t12.576 10.56zM538.848 234.272q-25.696-58.304-90.304-85.728t-128-6.848q-61.152 19.424-84.288 72.288t3.744 107.168q26.848 53.152 86.56 79.424t120.288 10.848q63.424-16.576 90.592-68.288t1.44-108.864zM717.12 325.696q-5.152 54.848-50.88 97.12t-119.136 62.272-156.864 12q-127.424-13.12-211.136-80.864t-75.712-151.136q5.152-54.848 50.88-97.12t119.136-62.272 156.864-12q127.424 13.12 211.136 80.864t75.712 151.136zM893.152 323.424q0-38.848-21.152-79.712t-62.272-78.304-96.288-67.136-129.12-47.424-154.592-17.696-157.152 19.136-137.44 53.152-98.016 86.272-37.152 113.984q0 65.728 39.712 140t112.864 147.424q96.576 96.576 195.136 134.848t140.864-4q37.152-36.576 11.456-119.456-2.304-8-0.576-11.456t5.696-4 8.288 0.288 7.712 2.016l3.424 1.12q79.424 33.728 140.576 33.728t87.456-34.848q25.696-36 0-101.696-1.12-7.424-2.56-11.456t2.56-7.136 6.848-4.288 9.728-3.424q32.576-10.272 58.848-26.848t45.728-46.56 19.424-66.56zM850.88 680q24-26.848 31.168-61.984t-3.744-67.136q-4.576-13.12-16.864-19.424t-25.408-2.304q-13.12 4.576-19.424 16.864t-2.304 25.408q11.456 36-13.728 63.424t-61.152 20q-13.728-2.848-25.696 4.576t-14.304 21.152q-2.848 13.728 4.576 25.408t21.152 14.56q34.304 7.424 68-3.136t57.696-37.408zM954.304 773.152q49.696-54.848 64.288-127.168t-7.712-137.984q-5.152-15.424-19.424-22.848t-29.696-2.304-22.848 19.424-2.848 29.696q16.032 46.848 5.696 98.304t-45.728 90.304q-35.424 39.424-84.544 54.56t-98.848 4.864q-16.032-3.424-29.696 5.408t-17.152 24.864 5.408 29.44 24.864 16.864q70.304 14.848 139.456-6.592t118.848-76.864z" />
<glyph unicode="&#xe97e;" glyph-name="work" d="M752 928l-96-96-336-96-288-624 38.048-38.048 349.216 349.184c-2.112 7.936-3.264 16.288-3.264 24.864 0 52.992 43.008 96 96 96s96-43.008 96-96-42.976-96-96-96c-8.576 0-16.928 1.152-24.864 3.264l-349.184-349.184 38.048-38.048 624 288 96 336 96 96-240 240z" />
<glyph unicode="&#xe97f;" glyph-name="wrench" d="M1002.944 142.112l-460.544 394.752c21.44 40.288 33.632 86.272 33.632 135.104 0 159.072-128.928 288-288 288-29.088 0-57.184-4.32-83.648-12.352l166.4-166.4c24.896-24.896 24.896-65.632 0-90.496l-101.504-101.504c-24.896-24.896-65.632-24.896-90.496 0l-166.4 166.4c-8.032-26.464-12.352-54.56-12.352-83.648 0-159.072 128.928-288 288-288 48.832 0 94.816 12.16 135.104 33.632l394.752-460.544c22.912-26.72 62.016-28.224 86.912-3.328l101.504 101.504c24.896 24.896 23.392 64-3.328 86.912z" />
<glyph unicode="&#xe980;" glyph-name="X2" d="M768 288l-96-96-160 160-160-160-96 96 160 160-160 160 96 96 160-160 160 160 96-96-160-160 160-160z" />
</font>
</defs>
</svg>
